<svg version="1.1" id="Layer_1" xmlns="http://www.w3.org/2000/svg" xmlns:xlink="http://www.w3.org/1999/xlink" x="0px" y="0px"
	 width="100%" viewBox="0 0 400 400" enable-background="new 0 0 400 400" xml:space="preserve">
<path fill="#FEFEFE" opacity="1.000000" stroke="none" 
	d="
M401.000000,144.000000 
	C401.000000,228.666672 400.973358,312.833374 401.095978,396.999847 
	C401.100952,400.424164 400.423798,401.097992 396.999908,401.095062 
	C266.333344,400.982758 135.666656,400.982758 5.000082,401.095032 
	C1.576226,401.097992 0.902022,400.423798 0.904964,396.999908 
	C1.017250,266.333344 1.017250,135.666656 0.904964,5.000082 
	C0.902022,1.576226 1.576226,0.902021 5.000082,0.904963 
	C135.666656,1.017256 266.333344,1.017256 396.999908,0.904963 
	C400.423798,0.902021 401.108704,1.574744 401.097870,5.000309 
	C400.951935,51.166515 401.000000,97.333336 401.000000,144.000000 
z"/>
<path fill="#BFB19D" opacity="1.000000" stroke="none" 
	d="
M311.649719,66.784515 
	C312.257477,67.188530 312.529724,67.371277 312.896729,67.787796 
	C315.841492,72.768211 318.513000,77.641685 322.861511,81.730728 
	C335.602020,94.450699 332.675110,108.370918 326.649689,122.421036 
	C322.579895,131.911011 317.011078,140.555923 310.385956,148.883179 
	C307.506470,149.431519 307.265167,152.056183 305.824402,153.529373 
	C304.560822,154.821396 303.145630,156.512192 301.253021,155.815704 
	C299.487030,155.165787 299.849518,153.043365 299.793701,151.423279 
	C299.747955,150.096466 299.917358,148.765900 300.280426,147.497559 
	C302.449005,139.921799 299.801392,132.177170 301.104919,124.549187 
	C301.391449,122.872444 300.217590,121.695930 297.928864,122.958305 
	C297.365082,123.323380 297.044769,123.412971 296.776733,123.577599 
	C295.066071,124.628281 292.496155,121.884972 291.545319,124.190941 
	C290.719910,126.192612 293.807434,127.007797 294.606628,129.145416 
	C294.799072,133.248154 293.439423,136.423904 290.457092,139.249878 
	C285.998138,138.903427 284.378998,135.281555 281.684845,132.430023 
	C280.381989,129.271194 282.091431,126.927582 283.025360,124.556076 
	C288.647400,110.280304 294.297333,96.003242 303.720612,83.259369 
	C304.217468,82.683151 304.772949,82.637268 304.852020,82.136200 
	C304.870544,82.018959 304.729218,81.946327 304.594971,81.944626 
	C303.928345,81.936180 304.753387,81.814606 304.200165,82.589996 
	C303.462219,82.865791 303.000397,82.890709 302.166504,82.764076 
	C298.114136,79.097130 299.743561,74.216461 298.853394,69.980438 
	C298.179565,66.773918 298.558380,63.361725 296.902466,60.299290 
	C296.356567,59.289684 296.000916,57.980640 297.063507,57.059879 
	C298.402496,55.899570 299.452545,57.038021 300.592834,57.706863 
	C304.648193,60.085636 307.404144,64.021126 311.649719,66.784515 
z"/>
<path fill="#5A4639" opacity="1.000000" stroke="none" 
	d="
M189.263733,365.796997 
	C177.236633,375.251190 164.013794,378.212372 149.560303,375.074493 
	C133.264389,371.536621 125.284081,359.117096 128.198380,342.467133 
	C128.483246,342.443604 128.889236,342.282227 129.047073,342.415253 
	C140.062897,351.699280 151.421478,351.833649 163.440384,344.223267 
	C169.860535,340.157990 176.933304,337.764801 185.214005,339.180359 
	C194.795792,340.411407 199.237961,347.807861 195.987198,356.452057 
	C194.639801,360.034912 192.793869,363.304779 189.263733,365.796997 
z"/>
<path fill="#5A4639" opacity="1.000000" stroke="none" 
	d="
M245.756393,348.624390 
	C255.630753,352.139984 263.056274,347.311523 270.364899,342.057190 
	C274.712891,357.552795 265.749695,371.156158 248.291473,375.544678 
	C245.848175,377.779419 243.404190,377.714447 240.405121,376.617004 
	C237.301132,376.199768 234.627060,375.993378 231.505630,375.803833 
	C217.663300,374.433105 207.382065,368.648499 202.213531,355.104614 
	C201.768082,353.436432 201.715363,352.116913 201.771027,350.386902 
	C204.055954,342.087952 208.160278,338.561401 215.660919,338.574310 
	C217.723145,338.828339 219.431763,338.881866 221.565491,338.886780 
	C228.915543,338.243927 234.080383,342.224579 239.687698,345.903595 
	C240.372360,346.535858 240.858765,346.835022 241.640305,347.159668 
	C243.345795,346.958954 244.493896,347.487976 245.756393,348.624390 
z"/>
<path fill="#5A483C" opacity="1.000000" stroke="none" 
	d="
M105.806648,306.083923 
	C110.122124,308.377777 114.274864,310.460114 118.543282,312.269562 
	C122.056816,313.759003 124.415642,315.671173 122.337685,319.775635 
	C120.643936,323.121246 115.268761,324.988983 112.457718,322.966614 
	C100.618904,314.449493 87.143852,309.185455 73.954201,303.368530 
	C70.468040,301.831055 69.575447,299.772888 70.866020,296.309631 
	C72.287056,292.496246 74.974152,289.848389 78.406624,288.015015 
	C87.185570,283.325928 96.051773,278.800049 104.887924,274.218262 
	C107.169617,273.035156 108.787315,270.652222 111.908699,270.967133 
	C114.613060,271.239990 116.926575,271.948608 117.857498,274.617767 
	C118.746025,277.165375 116.698235,278.567688 115.022392,279.906982 
	C111.880203,282.418091 108.185028,283.978668 104.312820,285.944946 
	C102.998444,287.010010 101.977577,287.856110 100.220322,287.798676 
	C98.694664,288.437561 97.449944,288.906708 95.998169,289.640686 
	C94.768326,291.930695 92.560516,292.631561 91.048477,294.129517 
	C89.153618,296.006714 89.060150,297.268616 91.643715,298.561523 
	C96.348152,300.915710 101.221771,302.945953 105.806648,306.083923 
z"/>
<path fill="#CCC0AC" opacity="1.000000" stroke="none" 
	d="
M269.692993,39.005516 
	C271.501617,39.388592 272.951843,39.917191 274.684570,40.626816 
	C280.710205,44.646980 280.633484,51.129631 281.598633,56.787682 
	C283.663116,68.890236 284.322937,81.129936 282.460083,93.388603 
	C281.747925,98.074898 283.074432,102.634827 283.844696,107.196236 
	C284.683075,112.161041 284.684357,117.041306 283.504089,122.303391 
	C281.548798,130.402496 279.648224,138.154144 276.922211,146.091599 
	C276.598267,146.687454 276.435852,146.909775 275.914093,147.343750 
	C275.004547,147.706696 274.450897,147.719818 273.515747,147.405060 
	C270.757080,142.365295 272.426208,137.396439 272.888519,132.522614 
	C273.194550,129.296524 273.178772,126.251266 272.126251,123.180717 
	C270.807953,119.334938 270.776398,115.446236 271.190582,111.364273 
	C272.066498,102.731903 271.680695,94.081268 270.544617,85.449059 
	C269.398438,76.740097 269.266052,67.964211 269.570587,59.185589 
	C269.610962,58.022045 269.634308,56.847923 268.915955,55.418129 
	C265.842316,51.786510 268.558624,48.260567 268.205444,44.483589 
	C267.994049,43.358818 267.955078,42.598717 268.049866,41.452477 
	C268.313568,40.301762 268.718292,39.658710 269.692993,39.005516 
z"/>
<path fill="#5A493C" opacity="1.000000" stroke="none" 
	d="
M277.712738,270.762939 
	C287.376282,271.055603 295.007294,276.182098 303.231384,279.532684 
	C307.546387,281.290680 311.118256,284.404388 314.718903,287.376251 
	C317.961365,290.052460 317.945923,292.878296 314.824097,295.242065 
	C304.098175,303.363403 293.236389,311.306549 282.367554,319.236938 
	C280.013458,320.954620 277.344971,321.509186 275.319000,318.743256 
	C273.169434,315.808655 275.212463,313.553406 277.333038,312.016754 
	C284.852936,306.567474 292.400360,301.125610 300.246399,296.170258 
	C304.042328,293.772858 303.637360,291.969849 300.855774,289.454834 
	C297.664551,286.569427 293.662781,285.416138 289.684601,284.211182 
	C285.243286,282.865936 280.632507,281.980255 276.640778,279.414856 
	C271.422302,276.061035 271.598145,273.890808 277.712738,270.762939 
z"/>
<path fill="#C8BCA9" opacity="1.000000" stroke="none" 
	d="
M283.225891,122.809921 
	C281.335388,122.811577 280.831116,121.947884 281.727997,120.630341 
	C285.319702,115.353966 282.649628,109.704231 281.907288,104.581017 
	C281.183777,99.588135 280.925262,94.727020 281.275848,89.825134 
	C281.934967,80.608879 282.821075,71.553864 280.530121,62.276558 
	C279.483429,58.038052 279.291321,53.360806 278.573792,48.884995 
	C278.104095,45.955116 276.568909,43.845650 275.013062,41.193283 
	C276.736359,41.499905 278.505646,42.191963 280.630310,42.880539 
	C284.614136,42.981846 287.441315,44.572372 289.651611,47.870781 
	C289.067535,51.236645 288.587128,54.149189 291.779633,56.186592 
	C292.300873,56.519218 292.805359,57.337761 292.622864,57.920513 
	C291.041779,62.969444 294.221558,68.039452 292.410248,73.114990 
	C290.764984,77.725304 290.143890,82.458122 291.632111,87.305611 
	C292.454193,89.983444 291.450043,92.571068 290.865662,95.155556 
	C290.346039,97.453743 290.216431,99.760002 290.676331,102.459221 
	C290.943146,104.645271 290.428894,106.279663 289.241638,108.067444 
	C287.078461,109.722931 286.104950,111.511345 286.704651,114.288933 
	C286.048859,117.446381 284.952240,120.093636 283.225891,122.809921 
z"/>
<path fill="#5A493C" opacity="1.000000" stroke="none" 
	d="
M240.180511,285.728699 
	C245.156204,292.249390 244.959335,299.087311 241.936295,305.741669 
	C238.698151,312.869507 229.215836,313.906708 224.016190,308.071747 
	C220.401657,304.015564 218.846848,299.167480 219.218552,293.827301 
	C219.871613,284.445068 230.121414,280.360535 240.180511,285.728699 
z"/>
<path fill="#5A483C" opacity="1.000000" stroke="none" 
	d="
M161.486969,310.824280 
	C156.277908,307.266602 154.123672,302.429596 153.769852,296.679291 
	C153.283371,288.773224 157.462326,284.000549 165.268005,283.461487 
	C173.389160,282.900635 177.596985,286.650848 178.132172,295.032562 
	C178.333374,298.183441 178.261246,301.318970 177.152924,304.365265 
	C174.759171,310.944794 169.226044,313.365723 161.486969,310.824280 
z"/>
<path fill="#F7F5F2" opacity="1.000000" stroke="none" 
	d="
M216.012299,338.378784 
	C209.869202,340.035950 204.640106,342.416168 202.995361,349.668884 
	C201.343140,351.488037 201.918137,353.066956 202.911255,354.792908 
	C208.079880,367.349182 218.140381,372.882141 230.767593,375.597961 
	C228.139725,377.839630 225.145233,376.048950 222.198364,375.950623 
	C211.633942,375.597931 205.826630,369.065338 201.830490,360.149994 
	C200.788132,357.824493 199.396393,356.779419 197.807251,359.937836 
	C196.251221,363.030457 192.365723,364.004639 190.944214,367.264832 
	C190.435074,366.928864 189.925919,366.592896 189.154938,366.099854 
	C190.581436,363.539825 192.571381,361.292206 193.902954,358.705658 
	C198.336227,350.094116 195.345108,342.967712 185.904755,339.433502 
	C187.268555,338.208557 189.034195,337.940125 190.891174,337.940521 
	C192.684158,337.940887 193.016830,336.708191 192.965103,335.229889 
	C192.927505,334.155609 192.660873,333.393311 191.370712,333.160492 
	C186.493637,332.280670 186.062637,330.910950 189.715607,327.038727 
	C191.970612,326.541962 192.830109,327.997345 193.568253,329.193573 
	C198.288834,336.843781 206.468414,335.356201 211.063431,329.626617 
	C211.582809,328.979004 212.188171,328.402374 213.274567,327.948181 
	C214.810226,328.060791 216.346146,328.526245 215.710175,329.867676 
	C214.347946,332.740967 216.021484,335.289581 216.012299,338.378784 
z"/>
<path fill="#C4B7A4" opacity="1.000000" stroke="none" 
	d="
M296.717010,123.214539 
	C297.227509,120.716362 298.651245,119.372940 300.677002,120.304008 
	C302.788818,121.274635 303.673187,124.168861 302.685120,125.807785 
	C300.835968,128.875015 302.356842,131.253250 302.649048,134.089050 
	C303.096771,138.434387 302.414337,142.985336 301.606201,147.336578 
	C301.141968,149.835892 301.143127,152.247543 300.965973,154.923264 
	C303.755157,154.430328 305.311737,152.919952 306.271667,150.519150 
	C306.805389,149.184357 307.427460,147.504120 309.800720,148.937408 
	C307.080109,155.142227 302.363037,160.059799 298.461426,165.900513 
	C296.210876,167.614471 294.513275,169.394485 293.067413,171.446396 
	C292.312408,172.517807 291.339569,173.642654 289.777344,172.912674 
	C288.379181,172.259354 287.846741,170.828369 288.315430,169.558044 
	C289.881073,165.314468 289.272858,160.582932 290.755707,156.551132 
	C292.345337,152.229004 291.620239,149.698608 287.750061,147.205505 
	C286.991577,144.136612 288.023590,141.806885 289.746887,139.297302 
	C291.876587,136.154816 293.257324,133.095627 293.995300,129.378235 
	C293.852081,126.723701 294.403259,124.753227 296.717010,123.214539 
z"/>
<path fill="#C7C3B6" opacity="1.000000" stroke="none" 
	d="
M269.839417,38.579700 
	C269.777649,39.390789 269.503906,39.921589 269.113831,40.726959 
	C267.223938,42.462883 265.537872,41.573883 263.923859,40.723747 
	C261.855713,39.634411 259.761108,38.669434 257.034698,38.287521 
	C252.336365,37.060581 247.908615,36.442780 243.170471,35.401459 
	C239.515350,34.541149 236.221924,33.863121 232.532928,33.205818 
	C229.493393,32.379410 226.702118,32.287975 223.663177,31.539608 
	C223.049133,31.510759 222.802704,31.517942 222.187088,31.516537 
	C218.983704,32.488724 216.483292,31.037889 213.479614,30.425198 
	C210.386978,30.415659 207.683746,30.415966 204.568329,30.440388 
	C201.134293,30.347864 198.214615,29.354141 194.770905,29.408117 
	C192.260452,29.380636 190.147202,29.180017 187.682343,29.731367 
	C186.806229,29.979681 186.297852,30.078630 185.404144,30.194233 
	C171.850540,29.591808 160.506027,35.477921 148.990005,40.539528 
	C139.238770,44.825455 129.501205,48.848129 118.858131,50.563091 
	C113.991989,51.347195 109.469757,53.828812 105.201195,56.434826 
	C103.818115,57.279209 102.321663,58.219021 102.274605,60.572800 
	C100.936867,62.683201 99.108620,63.412819 96.649300,63.597244 
	C95.782715,63.338963 95.392014,63.021641 94.981400,62.219139 
	C95.922684,58.010620 99.232178,56.117447 102.128891,54.141094 
	C108.335388,49.906563 115.067230,46.954605 122.695175,45.819984 
	C132.108017,44.419868 140.927170,40.721016 149.258728,36.287121 
	C169.709061,25.403845 191.416016,24.626850 213.771957,26.865128 
	C229.329071,28.422707 244.579102,31.414385 259.783417,34.850918 
	C263.214233,35.626362 266.417542,36.947269 269.839417,38.579700 
z"/>
<path fill="#C4B7A4" opacity="1.000000" stroke="none" 
	d="
M290.445496,103.057335 
	C288.924835,102.242203 288.696320,100.939804 289.050079,99.894913 
	C292.250092,90.442741 286.998322,80.221207 291.768158,70.873123 
	C292.536285,69.367729 292.308197,67.285164 291.118469,65.620468 
	C290.657288,64.975159 289.972260,63.888630 290.210785,63.438679 
	C292.308929,59.481079 292.078644,56.770355 287.639618,54.241943 
	C285.356873,52.941734 288.599243,50.548496 289.001282,48.175949 
	C291.248688,47.375698 292.625153,48.669720 294.079834,50.443375 
	C294.220703,54.361679 297.568085,53.457123 299.660706,54.809963 
	C301.292603,56.030926 302.661316,57.030521 304.339966,58.106865 
	C306.161804,58.807720 307.197723,59.872101 307.820374,61.749458 
	C309.224762,63.499802 310.483429,64.954247 311.863678,66.707237 
	C306.606079,66.106476 304.114014,61.018192 299.798889,58.556568 
	C299.134308,58.177456 298.756927,57.293255 297.215027,57.543217 
	C301.279358,64.914017 299.989777,73.081566 301.262054,80.871338 
	C301.322998,81.244400 301.933197,81.527748 302.683044,81.939957 
	C303.921082,85.636505 300.652435,87.327675 299.157898,89.683083 
	C296.336426,94.129715 294.779114,99.381935 290.445496,103.057335 
z"/>
<path fill="#C7C3B6" opacity="1.000000" stroke="none" 
	d="
M133.083435,229.403336 
	C126.763245,227.427948 124.938515,221.821396 122.220070,217.260162 
	C117.080452,208.636505 114.544075,198.946106 111.627655,189.394272 
	C103.456825,162.633270 95.822380,135.726883 85.750053,109.533386 
	C79.869698,94.241310 82.984550,78.776451 91.410454,64.635269 
	C91.801735,63.978592 92.641968,63.589428 93.613075,63.007530 
	C94.521828,63.346874 94.722717,63.937149 94.751572,64.917107 
	C94.660797,65.435089 94.596466,65.635742 94.372787,66.105995 
	C93.703362,67.015587 93.198875,67.659164 92.768135,68.720383 
	C92.548599,69.203033 92.451859,69.394608 92.189095,69.866562 
	C90.406807,72.184593 90.206108,74.671951 89.736801,77.456848 
	C85.094162,91.857170 87.513741,105.283943 92.821144,118.628983 
	C97.361229,130.044693 102.172409,141.430222 104.991165,153.413177 
	C108.569366,168.624664 113.668686,183.359451 118.309387,198.232117 
	C121.418343,208.195801 124.745117,218.247665 133.318176,225.792084 
	C134.192505,226.691925 134.529419,227.416428 134.353546,228.674500 
	C133.970352,229.201401 133.730850,229.339401 133.083435,229.403336 
z"/>
<path fill="#C8BCA9" opacity="1.000000" stroke="none" 
	d="
M287.626953,147.099609 
	C294.640228,149.822937 294.189514,149.679642 292.081207,156.216934 
	C290.627106,160.725677 291.563568,165.874466 289.166290,170.330261 
	C288.807312,170.997498 289.313110,172.066299 290.241608,172.302658 
	C291.237335,172.556091 291.565979,171.625687 292.039337,170.960083 
	C293.477753,168.937592 294.889862,166.865341 297.813171,166.075562 
	C292.873199,175.263504 286.730774,183.950241 282.322449,193.699310 
	C281.300262,195.959961 282.757080,198.802032 280.099060,200.699966 
	C279.745941,201.135941 279.540558,201.275650 278.964294,201.393967 
	C276.015717,198.030426 278.907227,195.167984 279.726562,192.322250 
	C280.550873,189.459290 280.998108,187.185806 279.329163,184.475357 
	C278.052643,182.402252 277.709167,179.845459 278.158478,177.321274 
	C278.445770,175.707169 278.877075,174.080856 277.608826,172.238586 
	C279.560333,163.196899 282.308289,154.762070 287.626953,147.099609 
z"/>
<path fill="#D7CDBA" opacity="1.000000" stroke="none" 
	d="
M227.429230,233.872818 
	C226.217072,233.716110 225.405579,233.483871 224.300079,233.119171 
	C222.335800,229.594971 221.065002,226.211166 223.897095,222.753922 
	C224.314072,222.244873 224.530609,221.505112 224.462372,220.866486 
	C223.684494,213.584030 223.587769,206.282501 223.601364,198.966965 
	C223.606186,196.374893 220.641342,196.656235 219.112274,194.955215 
	C219.001358,194.364670 219.089462,194.115005 219.488525,193.615173 
	C221.617966,192.531235 223.449203,192.859207 225.656799,193.423798 
	C227.290649,193.883606 228.487137,194.399490 230.069366,195.006317 
	C230.905457,195.407440 231.354202,195.691666 232.087677,196.274109 
	C235.608185,198.743652 235.885986,201.847336 236.192810,205.554718 
	C236.806946,212.975479 234.063538,220.085068 235.146927,227.555161 
	C235.955399,233.129700 233.379364,234.873245 227.429230,233.872818 
z"/>
<path fill="#DCD3C1" opacity="1.000000" stroke="none" 
	d="
M217.894867,194.314911 
	C224.996735,194.927414 225.552673,198.831833 225.125214,203.974274 
	C224.747955,208.512650 224.672867,213.134827 225.808411,217.740982 
	C226.382446,220.069504 226.931885,223.037033 224.186188,224.996826 
	C222.706009,226.053329 222.600082,227.534470 223.883957,228.799866 
	C225.056870,229.955933 225.059235,231.049759 224.146454,232.658142 
	C221.327576,231.962326 218.072876,232.473785 215.857727,229.617508 
	C215.298340,227.778519 218.885406,225.663483 214.939911,224.590225 
	C214.024948,224.341339 213.799530,222.641495 213.760040,221.479340 
	C213.451416,212.394775 213.994675,203.400223 217.894867,194.314911 
z"/>
<path fill="#D1C5B3" opacity="1.000000" stroke="none" 
	d="
M227.348785,234.112366 
	C228.479614,231.674957 230.716049,234.794800 232.447891,233.061005 
	C234.722992,230.783371 234.302155,228.009720 233.798965,225.567673 
	C233.105728,222.203354 233.632812,219.401611 234.470093,216.069458 
	C235.664963,211.314102 234.950699,206.036987 234.746292,200.995102 
	C234.675522,199.249557 232.749023,198.476379 231.200897,197.234985 
	C233.050018,195.209671 235.123032,196.295456 237.569458,197.030243 
	C240.037064,198.847900 243.084732,199.170853 244.495300,202.260864 
	C243.924530,210.786102 243.494415,218.892670 243.220352,227.018158 
	C243.088928,230.914398 243.361191,235.547226 238.390518,237.992462 
	C234.527359,236.801407 231.098190,235.538910 227.348785,234.112366 
z"/>
<path fill="#BAAD96" opacity="1.000000" stroke="none" 
	d="
M264.273926,240.719208 
	C264.025543,242.323547 264.078949,243.624725 264.015411,244.920181 
	C263.907227,247.125687 265.019653,250.212219 263.148834,251.280853 
	C261.169220,252.411606 259.347076,249.554886 257.184631,248.306488 
	C254.545242,244.060120 253.547455,239.974503 254.747101,235.227173 
	C256.483948,228.353943 254.702408,221.349365 254.821976,214.399811 
	C254.846588,212.969452 253.870575,211.420441 256.187653,210.459167 
	C260.059174,211.105484 261.984344,213.601471 263.759644,216.833252 
	C265.484589,223.650955 266.748352,230.139984 266.062042,237.226501 
	C265.658081,238.635483 265.248474,239.606018 264.273926,240.719208 
z"/>
<path fill="#C8BCA9" opacity="1.000000" stroke="none" 
	d="
M238.204147,238.306763 
	C241.804794,234.790741 241.841919,230.128616 241.904648,225.774933 
	C242.016754,217.993973 242.059357,210.235794 243.717422,202.266235 
	C245.914169,201.221024 247.313995,202.515793 249.192368,203.385345 
	C250.345367,204.262283 251.017441,205.048660 251.390533,206.476135 
	C250.335220,211.275452 250.871277,215.806183 250.642731,220.246628 
	C250.260254,227.678726 249.799500,235.111282 249.126038,242.843170 
	C245.388199,241.610901 241.919968,240.080276 238.204147,238.306763 
z"/>
<path fill="#E2DAC9" opacity="1.000000" stroke="none" 
	d="
M217.627975,193.696487 
	C215.790741,203.030258 214.905014,212.172134 214.994049,221.424576 
	C215.007706,222.845139 215.318268,224.235046 216.522705,224.907227 
	C219.608002,226.629074 216.710938,227.479919 215.932495,228.968994 
	C215.764130,229.270172 215.563904,229.178940 215.468109,229.124817 
	C212.017242,229.905197 208.922958,228.699677 205.587616,227.432709 
	C206.048950,216.126190 206.035248,205.171616 208.596954,194.040619 
	C211.627853,192.194092 214.435562,192.347488 217.627975,193.696487 
z"/>
<path fill="#C2B4A0" opacity="1.000000" stroke="none" 
	d="
M248.866974,243.126236 
	C247.375534,234.715790 249.631042,226.348389 249.324936,217.921616 
	C249.250931,215.884232 250.322800,213.793793 249.363159,211.643097 
	C248.490936,209.688416 249.345078,208.097305 250.838806,206.349182 
	C252.563492,205.366684 253.562119,206.592850 255.054596,207.318695 
	C256.275604,208.256012 257.049316,209.107315 257.099243,210.682297 
	C256.432770,211.310837 255.387848,211.802567 255.419083,211.884567 
	C257.365204,216.996033 255.987305,222.308273 256.511353,227.462585 
	C256.803528,230.336472 257.164093,233.088013 255.981400,235.638931 
	C254.038513,239.829559 257.040222,243.408920 256.987701,247.678207 
	C255.444977,247.230164 253.906754,246.428619 252.156830,245.379105 
	C251.365189,244.193481 250.403900,243.796249 249.182083,243.236206 
	C248.905563,243.096024 248.877533,243.110947 248.866974,243.126236 
z"/>
<path fill="#5E5249" opacity="1.000000" stroke="none" 
	d="
M147.877991,269.190247 
	C147.106277,268.278656 146.602066,267.617157 146.058502,266.989777 
	C145.071274,265.850311 144.604416,264.908264 146.239197,263.769135 
	C147.604965,262.817413 148.464355,262.636719 149.423218,264.201019 
	C152.520737,269.254364 156.861877,268.907623 161.620316,266.989319 
	C164.237015,265.934479 166.933746,265.071533 169.615616,264.186401 
	C175.278717,262.317322 179.683304,263.844147 182.980377,268.819366 
	C183.555695,269.687500 184.814316,270.597717 183.196564,271.683563 
	C182.035828,272.462616 180.942001,273.154846 179.876175,271.498596 
	C176.840546,266.781494 172.740326,267.593994 168.430130,269.301941 
	C165.959900,270.280792 163.408569,271.053925 160.932098,272.018188 
	C156.097137,273.900726 151.821655,273.179688 147.877991,269.190247 
z"/>
<path fill="#F7F5F2" opacity="1.000000" stroke="none" 
	d="
M105.914932,305.991608 
	C100.098434,304.532806 94.826942,301.472778 89.376274,298.785767 
	C86.348671,297.293304 86.992256,295.814728 89.078667,294.223572 
	C91.030563,292.735016 93.094513,291.393372 95.450127,289.946289 
	C97.826187,290.931824 95.906822,292.568176 96.398041,293.921936 
	C97.183716,296.087158 97.249977,298.316376 100.680557,298.104675 
	C106.046951,297.773468 104.626877,302.732819 105.914932,305.991608 
z"/>
<path fill="#C7C3B6" opacity="1.000000" stroke="none" 
	d="
M264.397064,240.959869 
	C264.177948,240.157089 264.331116,239.289230 264.746521,238.212799 
	C267.670868,232.142120 273.347809,227.659348 273.129028,220.066864 
	C275.722931,213.868561 274.981323,207.110794 278.713867,201.283813 
	C279.007324,201.014633 279.479645,201.009796 279.715515,201.003021 
	C281.577148,204.876801 279.405762,208.482544 278.718567,212.040192 
	C277.287964,219.446304 275.053619,226.725342 272.719299,233.916901 
	C271.542145,237.543442 269.422668,240.861786 264.397064,240.959869 
z"/>
<path fill="#5E5249" opacity="1.000000" stroke="none" 
	d="
M213.737518,327.542297 
	C212.464279,329.297150 211.433136,330.822571 210.140503,332.078979 
	C205.037811,337.038696 198.846283,336.846619 193.970749,331.580780 
	C192.743164,330.254944 191.780487,328.683777 190.381516,327.104614 
	C190.791275,325.027893 191.644806,326.150635 192.543884,326.848969 
	C200.284302,332.861176 205.459442,332.683716 212.445999,326.195251 
	C214.451630,324.332642 214.146866,325.778900 213.737518,327.542297 
z"/>
<path fill="#F7F5F2" opacity="1.000000" stroke="none" 
	d="
M294.264160,51.274517 
	C292.528015,50.066551 291.091125,49.067860 289.350403,47.933250 
	C286.873413,45.767670 284.183929,44.572208 281.296814,43.035259 
	C287.548218,39.638836 294.944977,43.334038 295.948181,50.758286 
	C295.516235,51.440189 295.063110,51.558830 294.264160,51.274517 
z"/>
<path fill="#F7F5F2" opacity="1.000000" stroke="none" 
	d="
M240.014709,345.927246 
	C234.100891,343.996216 228.973495,340.168152 222.343475,338.976807 
	C224.530182,334.962463 227.919830,337.727264 230.543732,338.286072 
	C233.238007,338.859894 235.012787,342.151825 238.586838,341.809723 
	C239.393494,341.732483 241.542984,343.528351 240.014709,345.927246 
z"/>
<path fill="#E0D7C6" opacity="1.000000" stroke="none" 
	d="
M132.787170,229.745575 
	C132.927826,229.262054 133.180145,229.194824 133.821198,229.079346 
	C137.442322,230.570679 136.130966,233.554260 136.167740,235.921204 
	C136.215759,239.010193 136.960510,239.880508 139.841965,238.231400 
	C141.828201,237.094635 143.876541,235.915161 146.683136,236.162445 
	C147.252243,236.347809 147.467728,236.457642 147.903717,236.855560 
	C144.717194,239.081238 141.347473,241.088623 137.892471,242.936539 
	C134.550522,244.723969 133.010193,243.562439 133.026352,239.509918 
	C133.038773,236.394104 132.945251,233.277893 132.787170,229.745575 
z"/>
<path fill="#E0D7C6" opacity="1.000000" stroke="none" 
	d="
M182.176758,227.699921 
	C175.216248,229.945801 168.163925,230.680542 161.396408,232.793381 
	C158.902267,233.572037 156.636520,235.275940 153.334351,234.667664 
	C153.535049,232.054779 155.577011,231.485962 157.407364,230.880081 
	C163.369339,228.906586 169.373199,227.045456 176.099091,226.617462 
	C178.064316,226.565552 179.595901,225.881744 181.550446,226.498016 
	C182.050842,226.895035 182.195190,227.116608 182.176758,227.699921 
z"/>
<path fill="#D5CAB7" opacity="1.000000" stroke="none" 
	d="
M182.481018,228.055145 
	C182.014816,227.894287 182.015671,227.726898 182.021637,227.308502 
	C182.867935,226.008316 184.068207,225.800613 185.751434,225.633423 
	C189.215744,225.440231 192.227798,225.515594 195.696732,225.551483 
	C199.230133,225.553940 202.353607,225.046265 205.646561,226.715790 
	C208.609772,228.605560 211.751755,227.943588 214.931213,229.042725 
	C211.321594,231.779282 207.232925,229.136353 203.351120,228.690247 
	C196.521057,227.905334 189.745224,228.224472 182.481018,228.055145 
z"/>
<path fill="#C4B7A4" opacity="1.000000" stroke="none" 
	d="
M323.072266,81.596237 
	C316.911774,79.751564 315.320160,73.986053 312.992249,68.404785 
	C317.316711,71.684517 320.036682,76.562363 323.072266,81.596237 
z"/>
<path fill="#F7F5F2" opacity="1.000000" stroke="none" 
	d="
M240.049896,376.749390 
	C242.343948,376.158997 244.712662,375.911835 247.526459,375.702515 
	C245.624847,379.740112 243.815384,380.051941 240.049896,376.749390 
z"/>
<path fill="#CCC0AC" opacity="1.000000" stroke="none" 
	d="
M293.814270,51.298775 
	C294.402161,51.071682 294.839447,51.078110 295.603027,51.119919 
	C297.178101,52.253525 298.426849,53.351749 299.799713,54.740650 
	C297.382446,55.213993 294.968872,54.900078 293.077484,52.985752 
	C292.320526,52.219585 293.351349,51.975235 293.814270,51.298775 
z"/>
<path fill="#F7F5F2" opacity="1.000000" stroke="none" 
	d="
M308.123962,61.734005 
	C306.671387,61.212692 305.564087,60.201954 304.763000,58.488243 
	C306.230103,58.101509 308.059601,57.370609 309.285339,58.574131 
	C310.368469,59.637669 308.720795,60.480980 308.123962,61.734005 
z"/>
<path fill="#F7F5F2" opacity="1.000000" stroke="none" 
	d="
M246.000854,348.460938 
	C244.786530,348.448364 243.561172,348.071259 242.135620,347.439636 
	C243.718567,345.568298 245.254379,345.051849 246.000854,348.460938 
z"/>
<path fill="#F7F5F2" opacity="1.000000" stroke="none" 
	d="
M100.235519,288.101166 
	C101.076599,287.358612 102.213806,286.748810 103.680161,286.139648 
	C103.676758,288.211334 102.832947,289.433136 100.235519,288.101166 
z"/>
<path fill="#E0D7C6" opacity="1.000000" stroke="none" 
	d="
M153.025620,235.035492 
	C151.909744,236.315063 150.422714,236.826981 148.467163,237.109360 
	C148.124237,237.143631 148.019333,237.015350 147.967987,236.950317 
	C148.208542,233.983612 150.083771,233.880844 152.641602,234.680908 
	C152.972626,234.962250 153.008194,235.010910 153.025620,235.035492 
z"/>
<path fill="#B5A88B" opacity="1.000000" stroke="none" 
	d="
M94.419746,66.098709 
	C94.020660,65.266228 94.002411,64.491371 93.968597,63.327950 
	C94.068970,62.634319 94.244705,62.368835 94.672440,61.998093 
	C95.217018,62.108051 95.569420,62.362854 96.111313,62.883888 
	C96.890785,64.696167 96.161819,65.584015 94.419746,66.098709 
z"/>
<path fill="#C8BCA9" opacity="1.000000" stroke="none" 
	d="
M249.042175,243.386246 
	C250.106003,243.058655 251.425385,242.749832 251.915344,244.766464 
	C250.820511,245.031342 249.909607,244.525131 249.042175,243.386246 
z"/>
<path fill="#F7F5F2" opacity="1.000000" stroke="none" 
	d="
M216.447556,326.533691 
	C216.413162,326.476776 216.481949,326.590576 216.447556,326.533691 
z"/>
<path fill="#5E5249" opacity="1.000000" stroke="none" 
	d="
M214.481140,323.552063 
	C214.472351,323.578766 214.489914,323.525360 214.481140,323.552063 
z"/>
<path fill="#C2B4A0" opacity="1.000000" stroke="none" 
	d="
M288.041260,146.628952 
	C284.669708,153.172729 282.565735,159.855453 280.205048,166.409012 
	C279.594452,168.104080 278.570129,169.555466 278.035400,171.626175 
	C278.018646,176.972870 276.813721,181.488922 272.692505,185.151215 
	C272.061676,185.138290 271.816254,185.026932 271.287628,184.619843 
	C270.680634,183.869324 270.423492,183.379395 270.119446,182.445435 
	C270.945526,170.433105 271.521057,158.773453 275.739685,147.311020 
	C275.998383,146.969559 276.005707,147.004929 275.987732,147.003403 
	C278.213165,142.278931 278.681976,136.909027 281.656677,132.164124 
	C284.711884,133.993286 287.358978,136.062225 289.648315,138.941788 
	C290.077515,141.608505 288.706055,143.833878 288.041260,146.628952 
z"/>
<path fill="#A99C83" opacity="1.000000" stroke="none" 
	d="
M282.004028,131.615143 
	C280.233917,136.953049 278.473206,141.907333 276.341095,146.931732 
	C277.311798,138.965622 280.169800,131.379349 282.897217,123.378380 
	C283.922455,120.249184 284.923218,117.488655 285.962006,114.364227 
	C285.631256,111.925797 286.578735,110.224068 287.816406,108.277283 
	C288.712799,106.584915 289.342468,105.144264 290.025635,103.358917 
	C294.438232,96.303070 297.733887,88.929512 302.923950,82.333328 
	C303.499054,82.013214 303.919586,81.999397 304.688202,82.007462 
	C304.439209,85.991913 301.500885,88.737267 299.507263,91.867218 
	C293.226501,101.727913 289.437683,112.680939 284.838654,123.280701 
	C283.721741,125.854973 282.946014,128.577271 282.004028,131.615143 
z"/>
<path fill="#C2B4A0" opacity="1.000000" stroke="none" 
	d="
M296.633850,122.995789 
	C296.175842,124.861481 295.351685,126.722710 294.264374,128.791977 
	C293.102020,128.285309 292.254333,127.490028 291.291809,126.874367 
	C289.755219,125.891518 288.795044,124.987732 289.983917,122.948395 
	C291.410706,120.501038 292.749664,121.396202 294.375305,122.553200 
	C294.862976,122.900299 295.629089,122.856209 296.633850,122.995789 
z"/>
<path fill="#A99C83" opacity="1.000000" stroke="none" 
	d="
M311.626343,79.902451 
	C310.037079,80.070015 308.815582,81.831078 307.051636,79.622292 
	C308.967499,79.638092 310.236572,76.340714 311.626343,79.902451 
z"/>
<path fill="#A99C83" opacity="1.000000" stroke="none" 
	d="
M304.987244,81.982986 
	C305.101837,82.000099 305.089569,81.158775 305.185272,81.968369 
	C305.036255,82.029335 305.001892,82.000099 304.987244,81.982986 
z"/>
<path fill="#FEFEFE" opacity="1.000000" stroke="none" 
	d="
M203.184921,354.520813 
	C200.861069,355.668243 201.042145,355.681030 201.213852,353.247070 
	C201.300705,352.015961 198.819443,350.227814 202.535034,350.013123 
	C202.977570,351.375000 203.087112,352.742035 203.184921,354.520813 
z"/>
<path fill="#D1C5B3" opacity="1.000000" stroke="none" 
	d="
M268.674561,54.181259 
	C272.702515,55.580318 270.713287,58.817188 270.877594,61.312748 
	C271.341400,68.357765 270.812531,75.437469 271.648102,82.486649 
	C272.897980,93.031067 274.088837,103.591507 272.152374,114.197960 
	C271.819000,116.023865 272.004303,117.808189 272.708496,119.584366 
	C275.237427,125.963135 274.632904,132.462860 273.552612,139.043701 
	C273.146240,141.519165 273.586975,144.133667 273.924377,146.883850 
	C275.990204,151.334641 273.475311,155.176895 272.812683,159.122986 
	C271.244720,168.460739 270.477875,177.822769 270.405823,187.260025 
	C270.379059,190.763885 270.304352,194.237732 269.215271,198.060455 
	C268.197388,200.915787 268.070587,203.777435 265.013336,205.390839 
	C260.089722,203.913025 261.278137,200.405350 262.699280,197.794876 
	C267.076050,189.755188 265.660553,181.805161 263.150452,173.763458 
	C262.098846,170.394531 260.973389,167.074982 262.757294,163.615799 
	C263.500793,162.174026 263.128662,160.711075 262.886444,159.226471 
	C261.541290,150.981445 261.377380,142.776123 262.269928,134.401474 
	C263.310547,124.637581 261.965485,114.869461 260.255951,105.191177 
	C258.922455,97.641663 259.702118,89.938995 258.710999,81.976967 
	C257.263702,77.895195 259.421753,74.854904 260.553802,71.634407 
	C261.815338,68.045464 262.713257,64.310059 264.857422,60.684578 
	C265.705902,59.298626 267.356598,59.006187 267.415985,57.112019 
	C267.534241,55.894897 267.834961,55.081871 268.674561,54.181259 
z"/>
<path fill="#B8AA90" opacity="1.000000" stroke="none" 
	d="
M266.286926,59.804241 
	C263.683899,66.743340 261.314880,73.472031 258.935425,80.587952 
	C258.174225,84.762329 255.616913,87.820915 254.582306,91.836731 
	C254.354126,92.747429 254.260605,93.353737 254.421936,94.275635 
	C254.538406,94.781792 254.583542,94.986900 254.652710,95.510727 
	C254.639496,96.265747 254.519180,96.678955 254.116272,97.329369 
	C253.731369,97.732628 253.561142,97.879814 253.120605,98.230392 
	C250.446564,101.151398 250.048645,104.768288 248.619003,107.923035 
	C247.944092,109.412369 247.823059,111.190735 245.841049,112.191673 
	C244.368347,111.790802 244.082886,110.799400 243.794434,109.382355 
	C245.933640,93.975891 250.692749,79.728485 256.741821,65.462677 
	C260.159058,57.756088 263.090179,50.226879 268.617004,43.932487 
	C271.412628,47.185204 267.087128,50.162094 268.809631,53.661282 
	C268.690826,54.785442 268.440094,55.587200 268.057007,56.681438 
	C268.005066,58.141014 267.532410,59.011768 266.286926,59.804241 
z"/>
<path fill="#D1C5B3" opacity="1.000000" stroke="none" 
	d="
M268.994873,43.608307 
	C265.169403,50.667793 261.288116,57.326290 258.258667,64.774979 
	C255.147690,64.294548 255.861969,61.795925 256.129181,60.237125 
	C257.272705,53.566116 254.502441,47.031303 255.699234,40.402111 
	C255.874832,39.429451 255.940338,38.436760 256.757263,37.296181 
	C261.336914,36.657284 264.177185,40.552189 268.619873,40.995350 
	C268.996979,41.746403 268.996399,42.491287 268.994873,43.608307 
z"/>
<path fill="#A99C83" opacity="1.000000" stroke="none" 
	d="
M268.363068,199.142883 
	C270.050690,181.961685 269.590485,164.631897 274.161133,147.489960 
	C274.604218,147.054901 275.001221,147.026886 275.698303,146.984222 
	C275.773499,154.264648 272.792847,161.105957 272.603058,168.445526 
	C272.484406,173.033661 271.571594,177.601273 271.030029,182.606903 
	C271.282562,183.252045 271.496521,183.489746 271.835114,183.937546 
	C271.983521,184.126297 271.930756,184.547562 271.929260,184.759827 
	C272.788086,186.015106 272.213562,187.183563 272.188171,188.644958 
	C272.099213,189.445190 272.021851,189.898529 271.843872,190.683258 
	C271.515137,191.901291 271.261169,192.783356 271.241394,194.068512 
	C271.136292,195.904877 271.022400,197.379288 269.717041,198.829498 
	C269.188843,199.144943 268.948853,199.218414 268.363068,199.142883 
z"/>
<path fill="#CCC0AC" opacity="1.000000" stroke="none" 
	d="
M287.727325,108.067612 
	C287.486328,109.803810 286.889496,111.582047 286.146362,113.680298 
	C284.083038,111.484009 285.834442,109.821785 287.727325,108.067612 
z"/>
<path fill="#F7F5F2" opacity="1.000000" stroke="none" 
	d="
M230.945129,293.384583 
	C234.016281,294.586578 235.242920,296.445923 233.941757,299.290009 
	C232.915237,301.533783 230.976654,301.615173 228.907669,300.987915 
	C227.228302,300.478760 226.647415,299.090515 226.614243,297.558014 
	C226.557999,294.959778 228.231766,293.792725 230.945129,293.384583 
z"/>
<path fill="#F6F1E5" opacity="1.000000" stroke="none" 
	d="
M163.258392,299.791016 
	C161.479004,297.150970 161.757172,295.022614 164.136017,293.520813 
	C165.647949,292.566254 167.331680,292.764709 168.729309,294.037720 
	C170.305878,295.473694 170.557770,297.277374 169.488861,298.983948 
	C167.991135,301.375244 165.868622,301.657440 163.258392,299.791016 
z"/>
<path fill="#FBF7EB" opacity="1.000000" stroke="none" 
	d="
M102.221115,61.328484 
	C101.244164,60.478348 100.451866,59.960857 99.422905,59.288795 
	C105.850174,53.771603 113.041069,50.182835 121.421791,48.793606 
	C133.368652,46.813229 144.046387,41.239880 154.989365,36.457649 
	C164.296265,32.390411 173.637482,28.496643 184.556305,28.946823 
	C186.203079,30.876713 185.172012,32.208618 183.447784,33.657055 
	C179.143799,35.131691 174.750412,33.249062 170.632050,35.852467 
	C164.883987,39.372540 162.782578,44.811260 161.145798,50.461208 
	C157.319717,63.668209 157.720840,77.269302 158.732498,90.676376 
	C160.755356,117.484337 165.905151,143.802811 173.367249,169.651703 
	C174.707626,174.294800 176.286148,178.858475 177.854553,183.856537 
	C178.172943,186.645004 179.677902,188.733444 179.507889,191.558075 
	C176.347794,194.543259 172.097961,193.557846 168.526611,195.665436 
	C167.399353,196.644180 166.231216,196.432251 165.641006,196.494446 
	C166.013580,196.174667 167.117355,196.791519 168.136078,195.913635 
	C171.431656,193.958603 175.046127,194.315048 178.516312,192.787537 
	C179.106689,192.548843 179.345673,192.453934 179.968231,192.285004 
	C180.889435,192.217407 181.395966,192.346817 182.154022,192.884354 
	C183.283859,196.547836 181.631500,198.840805 178.780823,200.902359 
	C176.941818,201.343491 175.343719,201.517212 174.039459,200.907028 
	C168.875732,198.491241 165.068924,201.291992 161.761398,204.399170 
	C158.549286,207.416672 155.335754,208.776443 150.792557,207.233429 
	C150.084015,206.993011 149.705399,206.826340 149.102005,206.510880 
	C148.692963,206.444046 148.523651,206.492996 148.127823,206.680313 
	C147.615768,207.034500 147.341522,207.263824 146.888184,207.706635 
	C146.565170,208.036758 146.432114,208.166443 146.078369,208.468201 
	C145.546463,208.849731 145.232971,209.055801 144.690414,209.429871 
	C144.163773,209.845657 143.868225,210.095200 143.352966,210.551636 
	C142.810059,211.016953 142.466095,211.243195 141.800171,211.544800 
	C141.068588,211.715256 140.638474,211.720642 139.886444,211.607727 
	C137.842010,211.089355 136.452927,209.987457 134.637207,209.007507 
	C133.977600,208.646118 133.621750,208.409103 133.039856,207.944550 
	C132.497696,207.451614 132.215469,207.145584 131.771088,206.574570 
	C131.374588,205.985062 131.172775,205.634735 130.836761,205.015060 
	C130.590759,204.577820 130.492920,204.401947 130.247894,203.961334 
	C129.704163,202.974442 129.257584,202.284500 128.580963,201.349915 
	C128.289917,200.876373 128.183289,200.676941 127.937378,200.161133 
	C125.649155,194.969437 124.368866,189.768051 122.064117,184.533981 
	C118.717804,170.796036 116.476242,157.239853 114.029327,143.299545 
	C110.948929,132.269699 109.885002,121.342445 108.863174,110.015251 
	C110.223213,106.060936 110.140564,102.445381 109.469521,98.789124 
	C107.644363,88.844688 105.538490,78.930786 106.490814,68.703766 
	C106.666862,66.813240 106.045998,65.087540 104.345406,63.475594 
	C103.475632,62.739372 102.907654,62.235172 102.221115,61.328484 
z"/>
<path fill="#F0ECDD" opacity="1.000000" stroke="none" 
	d="
M193.602448,28.426620 
	C197.096832,27.460424 200.098221,28.802689 203.614655,28.944443 
	C203.410675,35.600121 203.614685,42.296265 203.106995,48.952297 
	C202.737289,53.799652 201.861282,59.705383 204.618896,64.750694 
	C205.349670,66.087715 205.000992,67.680946 204.203247,69.030388 
	C202.898773,71.237007 205.786530,69.289970 205.739365,70.770416 
	C206.696716,73.631393 205.968826,76.057533 205.557892,78.503929 
	C202.128708,98.918823 201.706863,119.404442 203.845718,139.988373 
	C205.026276,151.349823 206.417435,162.689316 207.421005,174.068527 
	C207.539276,175.409653 207.927872,176.668015 208.276749,178.419952 
	C208.513458,182.310638 208.856628,185.754074 207.635117,189.551636 
	C204.042419,193.359222 199.950638,192.446976 195.524841,191.669067 
	C194.670395,190.935303 194.157303,190.208344 194.448273,189.667709 
	C198.750305,181.674332 193.043381,173.279388 195.459793,165.220688 
	C195.643173,164.609146 195.579346,163.815445 195.291687,163.250168 
	C191.139114,155.090012 191.436310,146.747452 193.384842,138.015152 
	C194.499313,133.020721 193.657486,127.657242 192.708664,122.613640 
	C191.336990,115.322220 193.692978,108.203789 192.809570,100.880379 
	C191.683060,91.541710 192.860016,81.923920 192.138474,72.650459 
	C191.245758,61.176716 191.989044,49.797119 191.521820,38.391811 
	C191.432419,36.209129 190.891800,34.110893 190.522369,31.559519 
	C190.549301,29.339870 192.080215,29.182224 193.602448,28.426620 
z"/>
<path fill="#F6F1E5" opacity="1.000000" stroke="none" 
	d="
M190.740387,29.732914 
	C194.550812,38.837845 193.034775,47.980991 192.394882,57.024231 
	C192.192657,59.882103 191.936935,62.497341 193.052078,65.274437 
	C194.971802,70.055214 194.262939,75.169518 193.687057,80.045815 
	C193.116653,84.875587 194.179382,89.605461 194.040207,94.110573 
	C193.843185,100.488991 196.353043,106.858986 193.727859,113.499397 
	C192.354507,116.973373 194.060730,121.680389 194.433121,125.825394 
	C195.024277,132.405396 195.860184,138.893570 193.484787,145.442825 
	C191.915802,149.768661 193.988724,154.122421 194.869156,158.488571 
	C196.985992,168.986359 199.874146,179.599686 195.031006,190.552795 
	C194.070465,191.969391 192.907883,192.038712 191.250809,191.585663 
	C187.973618,188.538147 187.237671,185.162415 188.486877,181.336777 
	C189.079727,179.521210 189.355713,177.732269 187.946548,176.168152 
	C185.581436,173.542969 185.649750,170.535263 186.110092,167.268051 
	C187.087997,160.327499 186.579086,153.321335 186.500778,146.350601 
	C186.423538,139.476700 188.323837,132.457748 185.037216,125.745056 
	C184.250137,124.137535 184.988876,122.129578 185.298523,120.330345 
	C187.105331,109.831360 186.343536,99.520607 182.882874,89.022614 
	C182.310745,87.909683 182.149994,87.116203 182.238541,85.896355 
	C183.123550,83.947052 183.907272,82.379089 182.939774,80.174103 
	C182.817932,72.360207 183.488449,64.973633 184.102936,57.591999 
	C184.722855,50.145275 185.194122,42.755711 182.283264,35.171089 
	C182.274734,34.442390 182.318405,34.151340 182.585464,33.479507 
	C184.111588,32.319263 184.545227,31.001335 184.974304,29.308887 
	C185.439316,28.940205 185.869873,28.921865 186.623672,28.912622 
	C188.131973,29.077271 189.375229,28.856985 190.740387,29.732914 
z"/>
<path fill="#E0D7C6" opacity="1.000000" stroke="none" 
	d="
M238.411377,198.125824 
	C235.924866,197.671249 233.863342,197.321640 231.403809,196.955673 
	C230.894196,196.621750 230.700790,196.366058 230.207458,196.062546 
	C229.438110,195.260834 229.059677,194.359467 229.471497,193.635559 
	C232.688721,187.980255 230.939835,181.965317 230.866455,176.070465 
	C230.763123,167.768143 230.258209,159.482285 230.239380,151.167068 
	C230.222214,143.582321 228.847076,135.984955 227.493591,128.500656 
	C226.618118,123.659660 226.253159,118.941071 227.066360,114.144806 
	C229.081100,102.261848 230.123505,90.425430 226.127380,78.703934 
	C225.585678,77.115013 225.573074,75.425323 225.566101,73.757576 
	C225.552246,70.440613 225.521515,67.215843 223.971252,64.054970 
	C222.692703,61.448082 223.410583,58.430309 223.985733,55.692482 
	C224.486618,53.308170 224.393478,51.089893 223.624954,48.424725 
	C223.337326,47.526897 223.223984,47.010494 223.155151,46.106476 
	C220.651352,40.788998 224.061020,35.677845 222.860565,30.385841 
	C225.768631,30.626339 228.525879,31.183313 231.632996,31.905563 
	C232.939621,33.064873 233.570679,34.277424 233.690155,35.612221 
	C234.484360,44.484398 237.631699,53.149666 235.481125,62.286716 
	C233.541245,70.528648 235.457916,78.866676 235.915253,87.112206 
	C236.358536,95.104454 235.945877,103.083832 236.370667,111.020882 
	C236.859039,120.146225 235.759079,129.277664 236.847519,138.349548 
	C237.345627,142.501129 237.573044,146.637634 237.485748,150.794388 
	C237.441605,152.896210 237.816116,154.749817 239.503021,156.709686 
	C241.133545,163.517868 240.048492,170.016052 240.425583,176.913727 
	C240.498932,182.630447 241.026871,187.850586 242.325195,192.956833 
	C243.130981,196.125916 242.595688,198.187698 238.411377,198.125824 
z"/>
<path fill="#DCD3C1" opacity="1.000000" stroke="none" 
	d="
M239.289520,156.717026 
	C236.179321,156.423019 235.943481,154.152710 236.039032,151.989853 
	C236.513168,141.257126 235.468933,130.520203 235.328735,119.816582 
	C235.116913,103.646179 235.945816,87.266701 233.067520,71.157555 
	C232.560913,68.322243 233.235428,65.533691 233.984909,62.815533 
	C236.422119,53.976383 232.960251,45.506954 232.430771,36.856274 
	C232.350220,35.540394 232.144058,34.232197 231.989441,32.495644 
	C235.504532,32.063503 238.847519,33.044788 242.601990,33.965305 
	C245.722260,37.393444 245.973160,40.764069 244.711914,45.130882 
	C242.784424,51.804417 244.668030,58.697475 246.294571,65.271561 
	C247.927765,71.872482 248.358475,78.113892 246.728958,84.900841 
	C244.865097,92.663857 244.746429,100.805229 244.347961,109.214325 
	C245.732819,116.078629 243.233704,122.251549 242.889175,128.606903 
	C242.666931,132.706161 242.249054,136.768341 242.785477,141.275879 
	C243.164154,142.803253 243.161972,143.926056 242.829010,145.447815 
	C240.535919,149.039398 240.990189,153.015335 239.289520,156.717026 
z"/>
<path fill="#D7CDBA" opacity="1.000000" stroke="none" 
	d="
M244.304932,109.268211 
	C240.370560,106.837334 243.297043,103.706970 243.359604,101.251358 
	C243.446732,97.831795 245.648621,94.802353 243.488052,90.877640 
	C242.545837,89.166092 244.333084,85.553604 245.544693,83.137344 
	C248.095123,78.051163 247.192215,72.735184 245.616501,68.103355 
	C243.381729,61.534302 243.883865,54.716621 242.243591,48.180737 
	C242.128357,47.721542 242.044891,47.043591 242.287476,46.737392 
	C245.324326,42.904312 244.342636,38.866737 242.996872,34.403206 
	C247.401535,34.978382 251.808929,35.945221 256.605103,36.958557 
	C257.953369,41.497498 253.916977,46.668549 258.843567,50.622112 
	C255.962875,55.053566 257.759705,59.935078 257.738922,64.804787 
	C253.011261,78.151398 248.367386,91.413506 245.454544,105.213646 
	C245.250015,106.182610 245.146652,107.172935 244.988098,108.562439 
	C244.835938,109.153503 244.691940,109.335449 244.304932,109.268211 
z"/>
<path fill="#EBE4D4" opacity="1.000000" stroke="none" 
	d="
M205.617981,70.000526 
	C204.525894,70.855873 203.816238,71.677780 203.062775,72.550446 
	C201.427261,71.570747 202.981354,70.537758 203.033722,69.586449 
	C203.077484,68.791595 204.001083,67.667000 203.722168,67.290260 
	C200.452393,62.874020 202.974792,57.849747 202.083221,53.215969 
	C202.022263,52.899147 201.679718,52.598396 201.702957,52.309044 
	C202.312149,44.727516 202.952377,37.148476 203.810944,29.264191 
	C207.046783,28.991632 210.058990,29.023890 213.522339,29.085953 
	C215.925949,32.687420 216.269913,36.478325 215.640656,40.445873 
	C215.420868,41.831627 214.369659,43.197563 215.480011,45.021698 
	C212.476059,53.602753 210.771133,62.382748 205.617981,70.000526 
z"/>
<path fill="#E5DDCD" opacity="1.000000" stroke="none" 
	d="
M101.684319,61.018478 
	C102.582893,61.164398 103.129333,61.332962 103.827026,61.753811 
	C102.130402,66.297417 103.943916,70.862679 102.984879,75.239883 
	C102.564941,77.156532 102.865814,79.312904 100.156113,80.353897 
	C92.135719,77.935028 90.355354,75.595978 91.807556,69.337387 
	C92.040833,68.996376 92.000717,68.994080 92.015099,69.007996 
	C92.687576,68.242828 92.900246,67.194496 93.815033,66.229828 
	C94.037491,66.023537 94.014030,66.013748 94.026474,66.027420 
	C95.146706,65.656250 95.656982,64.742424 96.186508,63.447273 
	C97.977928,62.447113 99.655052,61.744118 101.684319,61.018478 
z"/>
<path fill="#E5DDCD" opacity="1.000000" stroke="none" 
	d="
M215.382874,45.069588 
	C213.976120,44.856983 212.576813,44.326565 213.253693,43.276516 
	C216.076065,38.898193 213.852936,34.380680 213.982330,29.530676 
	C216.530228,28.476377 218.455170,32.406853 221.600769,30.098549 
	C222.715500,32.141380 222.377045,34.184998 221.682709,36.571102 
	C218.424637,38.833855 218.998749,43.330566 215.382874,45.069588 
z"/>
<path fill="#E2DAC9" opacity="1.000000" stroke="none" 
	d="
M220.726837,37.331127 
	C221.157211,34.930405 220.556396,32.764996 221.809357,30.428373 
	C222.136688,30.066919 222.311462,30.057056 222.748810,30.058281 
	C223.669952,32.994415 227.004028,35.894283 222.927597,38.858246 
	C221.855682,39.637642 222.515533,40.565571 223.453293,41.232269 
	C224.622192,42.063301 225.388489,43.077076 224.260071,44.791153 
	C222.788864,46.313198 221.419281,47.189117 219.163269,46.402611 
	C217.266449,42.937763 219.107025,40.340023 220.726837,37.331127 
z"/>
<path fill="#FBF7EB" opacity="1.000000" stroke="none" 
	d="
M191.332916,29.990692 
	C189.797562,29.827553 188.603668,29.659702 187.178345,29.206787 
	C188.847336,27.453449 191.052734,28.317141 193.525421,28.159706 
	C193.865524,29.668167 192.914474,30.010292 191.332916,29.990692 
z"/>
<path fill="#F9F6E9" opacity="1.000000" stroke="none" 
	d="
M133.741043,207.909729 
	C136.449966,207.546295 137.530991,210.089233 139.790405,210.735748 
	C140.142426,211.129807 140.279968,211.257767 140.515884,211.649048 
	C140.613525,212.098755 140.612778,212.285156 140.536743,212.739517 
	C140.290314,213.329895 140.090912,213.633438 139.684265,214.112030 
	C139.394196,214.435883 139.276245,214.561249 138.817520,215.058319 
	C138.266403,215.688263 138.078384,215.961838 137.797089,216.475815 
	C137.597198,216.849426 137.512939,216.997986 137.282471,217.359070 
	C136.923737,217.850464 136.713562,218.131104 136.365112,218.646378 
	C135.950195,219.371872 135.682053,219.867813 135.291885,220.638580 
	C134.287216,222.150513 134.194534,223.615402 133.895538,225.362549 
	C133.705963,225.871994 133.601379,226.064774 133.253998,226.479584 
	C126.450294,222.772476 123.589172,216.125244 121.032928,209.523636 
	C113.661552,190.486725 108.305389,170.810089 102.976830,151.122879 
	C99.454407,138.108719 94.015884,125.733368 89.396362,113.089119 
	C85.066154,101.236771 84.623711,89.439278 88.718414,77.208572 
	C97.766319,85.891708 101.433136,97.227859 104.031227,109.003357 
	C105.427666,115.332474 106.819572,121.666153 108.189880,128.402863 
	C109.181168,134.092606 110.208313,139.375534 111.611671,144.961792 
	C111.840828,145.793091 111.938522,146.270966 112.065857,147.102036 
	C112.224213,148.350555 112.245529,149.262405 112.589233,150.459473 
	C112.796959,151.200928 112.896744,151.628433 113.047958,152.378967 
	C113.246078,153.338745 113.390282,153.975494 113.781265,154.889496 
	C114.229691,155.823868 114.500557,156.466812 114.860291,157.469360 
	C116.134109,166.883865 119.519394,175.346298 122.198051,184.385529 
	C124.197815,190.055923 126.303368,195.283127 128.792389,200.737518 
	C129.018509,201.027237 129.003586,201.017456 129.007477,201.011017 
	C129.662857,201.787628 129.852707,202.851608 130.799454,203.799866 
	C131.016083,204.012909 130.997849,204.000763 130.994034,203.990479 
	C131.452942,204.462311 131.454010,205.178513 132.131042,205.863602 
	C132.571838,206.141861 132.712433,206.275238 132.896881,206.564606 
	C133.167419,207.051514 133.330170,207.426392 133.741043,207.909729 
z"/>
<path fill="#FBF7EC" opacity="1.000000" stroke="none" 
	d="
M134.827789,220.020294 
	C135.124039,219.232681 135.248367,218.787323 135.547867,218.185364 
	C136.046432,217.846863 136.347870,217.633881 136.820618,217.190506 
	C137.013870,216.991180 136.998276,216.998245 136.996613,217.006592 
	C137.437546,216.587296 137.507812,216.001602 137.834885,215.220383 
	C138.010620,214.990448 137.997665,214.998184 137.994904,215.005280 
	C138.265030,214.758408 138.517761,214.485901 138.887024,213.950333 
	C139.125320,213.511765 139.259872,213.343719 139.566544,213.115936 
	C140.034225,212.867477 140.258560,212.616287 140.169907,212.070129 
	C139.982132,211.881851 139.995483,211.441864 140.000183,211.221848 
	C140.395950,211.006668 140.787003,211.011505 141.471222,211.027679 
	C142.139709,210.808151 142.468109,210.523224 142.882843,209.883972 
	C143.125397,209.437637 143.248459,209.304230 143.492676,209.099503 
	C144.203369,208.711990 144.844406,208.526337 145.766602,208.196381 
	C146.026581,207.985641 146.001282,208.000687 145.992569,208.012573 
	C146.465942,207.426666 146.829056,206.716782 147.786636,206.171890 
	C148.014145,205.991089 147.999405,205.998978 147.993561,206.004929 
	C148.173630,205.893738 148.359573,205.776611 148.820984,205.840500 
	C156.181335,209.622650 160.463257,203.695084 164.929550,200.531693 
	C168.505249,197.999084 170.927856,198.266495 174.214508,199.823822 
	C175.044281,200.216995 176.182404,199.959396 177.592163,200.001602 
	C178.542191,200.634155 179.319901,201.200256 179.446915,202.004791 
	C180.794189,210.539703 182.136688,219.089615 177.284851,227.529526 
	C168.713501,228.694916 160.658783,230.270447 153.125702,234.641586 
	C151.276474,234.927979 149.554489,234.801666 148.099518,236.581848 
	C143.229645,236.653473 139.931793,240.414337 135.258255,241.378967 
	C135.067795,237.349945 134.885941,233.502701 134.456985,229.343292 
	C133.995483,228.392227 133.781067,227.753342 133.288940,226.908020 
	C133.011215,226.701614 132.997757,226.413055 132.990204,226.268829 
	C134.607071,224.513657 133.586594,222.134659 134.827789,220.020294 
z"/>
<path fill="#A9987A" opacity="1.000000" stroke="none" 
	d="
M107.412643,129.341980 
	C104.038864,117.371689 102.396927,105.390320 98.340073,93.949173 
	C96.184433,87.869850 91.359627,83.561806 89.073158,77.326744 
	C88.967064,74.143730 88.956734,71.326599 91.694778,69.115028 
	C90.063248,75.556671 95.697960,77.004318 99.608963,79.977974 
	C102.190010,80.402184 103.428513,82.035843 104.199165,83.864708 
	C107.492462,91.680191 109.876762,99.727371 109.602158,108.705917 
	C111.455742,120.092224 112.346024,131.289688 115.032333,142.590515 
	C111.540031,144.797653 110.592384,142.535278 110.057220,139.819794 
	C109.384651,136.407150 108.795319,132.979416 107.412643,129.341980 
z"/>
<path fill="#B5A88B" opacity="1.000000" stroke="none" 
	d="
M93.677902,66.040375 
	C94.036964,67.183510 93.484848,68.060120 92.326111,68.899689 
	C91.941414,67.808624 91.751556,66.551102 93.677902,66.040375 
z"/>
<path fill="#CCC0AC" opacity="1.000000" stroke="none" 
	d="
M271.311066,189.269806 
	C271.239319,187.876312 271.445435,186.745789 271.789673,185.293671 
	C275.640442,181.635895 276.009674,176.823486 277.717102,172.237030 
	C280.790894,172.494431 280.197601,174.636887 279.724121,176.250473 
	C278.606018,180.060745 279.210876,183.338333 282.058563,186.097702 
	C283.339996,187.339386 282.818024,188.503448 282.135132,189.651794 
	C280.121796,193.037491 279.815430,196.976257 278.754578,200.799973 
	C277.300018,207.130066 276.895599,213.558441 274.281433,219.762299 
	C271.543091,220.119888 270.718903,218.036591 270.616180,216.484863 
	C270.307037,211.814621 269.567047,207.073227 271.692261,202.506653 
	C273.679962,198.235657 275.091736,193.825851 271.311066,189.269806 
z"/>
<path fill="#E9E2D1" opacity="1.000000" stroke="none" 
	d="
M207.150787,190.804977 
	C206.971100,186.657913 206.985184,183.264633 207.010254,179.408920 
	C207.018173,169.541672 205.267517,160.243698 205.454178,150.815048 
	C205.989914,123.755669 208.269913,96.840080 211.795822,70.019379 
	C211.990967,68.534973 212.374924,67.088013 213.335571,65.366241 
	C217.376892,63.397144 217.941208,65.448059 217.685562,68.539452 
	C216.845413,78.698296 216.984299,88.640671 220.583328,98.512115 
	C222.872452,104.790802 221.672302,111.736649 221.169815,118.354561 
	C220.863464,122.389015 220.520096,126.280663 221.872864,130.187103 
	C222.586975,132.249298 222.451233,134.463730 222.501389,136.631409 
	C222.848053,151.612030 221.771469,166.612534 223.384033,181.583771 
	C223.822205,185.651764 223.843140,189.962189 220.400528,193.655136 
	C220.012146,193.887253 219.520874,193.927475 219.275803,193.950134 
	C219.030731,193.972809 219.007767,193.993744 219.011475,193.987427 
	C215.608871,192.761887 211.962341,193.376297 208.171616,192.384705 
	C207.678604,191.963760 207.511581,191.761261 207.150787,190.804977 
z"/>
<path fill="#E5DDCD" opacity="1.000000" stroke="none" 
	d="
M220.399170,193.919235 
	C222.338013,188.180679 222.074921,182.396851 221.434662,176.338882 
	C220.669312,169.096985 221.064026,161.729752 221.008865,154.416412 
	C220.964935,148.592514 220.982269,142.767960 221.007065,136.943848 
	C221.020523,133.785461 221.024170,130.727631 219.518784,127.720909 
	C218.398209,125.482773 218.859894,122.846298 219.359222,120.373627 
	C220.723618,113.617012 220.049789,106.773911 219.799408,100.002213 
	C219.693710,97.143372 216.583298,94.936455 216.299377,91.657509 
	C216.097580,89.326813 215.535507,86.906082 216.341873,84.766823 
	C217.275146,82.290840 217.029938,79.902283 215.769913,78.087105 
	C213.463913,74.765137 214.288925,71.906830 216.074097,68.964088 
	C217.214142,67.084793 217.701447,65.582771 214.470215,65.020752 
	C213.299652,58.237793 214.845627,51.953690 218.490433,45.992599 
	C220.359131,45.669342 221.808624,45.374928 223.629364,45.040257 
	C224.001022,45.444260 224.001419,45.888515 224.002441,46.665970 
	C223.195908,58.957237 225.448212,70.720749 226.288345,82.573563 
	C226.536255,86.071251 226.790207,89.592545 226.444153,93.054932 
	C224.362183,113.885857 228.640121,134.556412 227.978546,155.288956 
	C227.627121,166.302460 228.745895,177.212311 228.448090,188.173553 
	C228.389023,190.348511 228.149078,192.512100 226.297424,194.596863 
	C224.364731,194.010086 222.589050,193.908707 220.399170,193.919235 
z"/>
<path fill="#E2DAC9" opacity="1.000000" stroke="none" 
	d="
M226.329910,194.984955 
	C227.776764,187.202805 226.178558,179.466843 226.211945,171.739243 
	C226.260452,160.507629 226.221527,149.274567 225.920792,138.056305 
	C225.610580,126.484634 223.545746,114.854279 224.319550,103.389389 
	C225.072922,92.227196 224.173126,81.240112 223.960556,70.179863 
	C223.844269,64.128593 222.525940,58.164795 222.371384,52.079597 
	C222.323624,50.198517 222.614075,48.934422 223.844666,47.315666 
	C226.048431,48.701145 226.392807,51.063946 225.884216,53.367645 
	C224.840164,58.096592 225.734573,62.423195 226.442215,67.194008 
	C228.486084,80.973091 231.945053,94.831322 229.861786,108.939293 
	C229.213058,113.332443 227.399765,117.581276 228.021713,122.132195 
	C229.043945,129.612228 230.105850,137.090271 231.383286,144.529282 
	C231.664505,146.166855 232.092102,147.773941 231.984894,149.428574 
	C231.175629,161.918350 232.199310,174.364380 233.112350,186.791580 
	C233.374756,190.363022 231.234558,192.477249 230.003021,195.574463 
	C228.884430,195.647476 227.779541,195.342056 226.329910,194.984955 
z"/>
<path fill="#D5CAB7" opacity="1.000000" stroke="none" 
	d="
M207.827728,190.870880 
	C211.502808,191.832657 215.008148,192.622070 218.764343,193.696304 
	C218.843094,193.988571 218.671036,193.996017 218.240723,194.016052 
	C215.294846,194.010880 212.607224,193.993134 209.471405,193.971344 
	C206.166718,194.674698 203.375290,194.198624 200.217239,193.469955 
	C197.833725,193.346024 195.828445,193.271561 193.444977,193.275131 
	C192.819000,193.250626 192.569031,193.231552 191.949005,193.149658 
	C191.341293,193.011185 191.103622,192.935532 190.542938,192.674973 
	C190.063934,192.299377 189.907913,192.108673 189.751984,191.550934 
	C189.932114,191.019592 190.112106,190.855301 190.639130,190.805908 
	C192.052292,190.935471 193.118408,190.950165 194.583496,190.940887 
	C198.717224,190.842468 202.507751,191.611237 206.554871,190.114777 
	C206.957016,190.051208 206.983627,190.025650 206.976120,190.022614 
	C207.203400,190.240814 207.433197,190.467117 207.827728,190.870880 
z"/>
<path fill="#DBD1BF" opacity="1.000000" stroke="none" 
	d="
M241.753052,146.292053 
	C242.002380,144.937836 241.996445,143.956223 241.989487,142.606537 
	C242.084152,142.037186 242.179840,141.835922 242.527878,141.418152 
	C246.391296,139.032272 244.271881,136.415222 243.272156,133.533752 
	C243.138367,132.374100 243.310410,131.629181 244.096466,130.710571 
	C247.705109,129.825348 248.852417,132.122467 249.803375,134.476410 
	C250.625916,136.512466 250.891190,138.839478 250.283447,140.844116 
	C248.097580,148.054398 250.009079,154.898514 251.653839,161.800186 
	C251.846832,162.609970 252.205414,163.482559 251.959229,164.243332 
	C248.672165,174.401367 252.541687,184.660126 251.494110,194.850601 
	C251.190582,197.803253 251.550583,200.850586 249.339600,203.738708 
	C247.539948,203.435730 246.082855,202.851212 244.317535,202.125763 
	C242.414841,200.343262 239.652283,200.681915 238.146027,198.320572 
	C240.812607,197.029907 242.526611,196.448593 240.639282,192.320160 
	C238.847717,188.401184 239.452103,183.386902 239.009216,178.408142 
	C240.617706,168.393204 239.333160,158.625275 241.002594,149.058548 
	C241.143219,148.252808 241.117645,147.419479 241.753052,146.292053 
z"/>
<path fill="#D5CAB7" opacity="1.000000" stroke="none" 
	d="
M253.165710,93.198524 
	C254.567688,89.039909 255.197540,84.624588 258.738342,81.256332 
	C261.056702,81.207611 261.321960,82.687515 260.729248,84.227348 
	C260.078094,85.919014 260.762146,87.449623 260.736420,89.019325 
	C260.494690,103.765717 265.160278,118.188210 263.873077,132.923462 
	C263.163239,141.050079 261.833679,149.311554 264.256470,157.049271 
	C266.107666,162.961563 261.044464,168.160934 264.477386,174.088547 
	C268.284241,180.661926 267.628235,188.270737 265.729095,195.405853 
	C265.072693,197.871994 262.183502,199.680466 262.998840,202.885468 
	C263.213318,203.728546 263.360229,204.486374 264.629089,204.919250 
	C266.797821,206.912369 263.413239,208.506500 264.934967,210.615112 
	C267.359802,213.630280 267.176178,215.856827 263.292511,217.168335 
	C261.250183,215.039520 259.830139,212.762100 257.169464,211.276367 
	C256.394928,210.195831 255.814407,209.381363 255.102051,208.294434 
	C255.501465,205.249176 256.042603,202.460281 255.597977,199.632858 
	C253.836151,188.429489 254.576553,177.075912 255.069641,165.931412 
	C255.538040,155.344406 252.945923,144.893555 254.878448,134.265701 
	C255.703445,129.728622 253.372330,124.728661 251.894424,120.425873 
	C250.039978,115.026787 250.864395,110.372948 251.980087,105.455765 
	C252.577866,102.821175 252.838547,100.269394 252.786438,97.270470 
	C253.011581,96.918709 253.416733,96.895218 253.618958,96.911934 
	C254.441727,96.605598 254.682175,96.130554 254.175232,95.257812 
	C253.938538,95.064331 253.979507,95.053070 253.960815,95.044159 
	C253.578613,94.555397 253.529099,93.962921 253.165710,93.198524 
z"/>
<path fill="#D1C5B3" opacity="1.000000" stroke="none" 
	d="
M262.959869,217.465210 
	C265.474731,215.701996 266.746338,214.003052 264.229492,211.152191 
	C264.537201,206.781998 267.971527,203.734756 268.724731,199.236954 
	C269.680054,197.637299 270.092316,196.253128 270.027374,194.374695 
	C270.752472,193.364136 271.001343,192.549683 270.925598,191.291565 
	C270.926178,190.526688 270.951324,190.092026 271.004822,189.332092 
	C274.253387,188.832947 274.994659,191.050369 274.935425,193.502274 
	C274.840088,197.450943 273.212952,201.117126 272.247772,204.750305 
	C271.134308,208.941620 269.403687,214.996933 273.719391,219.792084 
	C274.981445,227.697357 269.876953,232.573669 265.360870,237.945023 
	C265.459900,231.182526 264.002655,224.552475 262.959869,217.465210 
z"/>
<path fill="#D7CDBB" opacity="1.000000" stroke="none" 
	d="
M252.648743,96.969467 
	C256.723358,102.070343 252.526321,106.783043 251.961426,111.649628 
	C251.702866,113.877106 250.806747,115.676987 252.832123,117.406052 
	C253.774643,118.210678 254.057724,119.362953 253.987305,120.578346 
	C253.773270,124.272118 254.753494,127.522919 256.196503,131.021118 
	C257.864838,135.065613 256.024139,139.778000 255.593781,144.147125 
	C255.356293,146.558090 255.380707,148.658813 256.085236,150.885864 
	C256.481903,152.139709 257.139252,153.532272 256.921204,154.723633 
	C255.457291,162.722000 257.352051,170.775955 256.171295,178.825714 
	C254.987564,186.895828 257.172089,194.993286 257.365967,203.116013 
	C257.416992,205.254471 257.229218,206.555267 255.287857,207.862366 
	C253.509979,208.099335 252.641968,207.027252 251.306717,206.156845 
	C250.420288,205.534882 249.830124,205.043076 249.118484,204.285767 
	C250.402435,195.115997 250.406891,186.249191 249.204544,177.278290 
	C248.699432,173.509445 249.152054,169.618301 250.143372,165.604584 
	C251.133621,161.595169 249.255859,156.749100 248.147614,152.393936 
	C247.384125,149.393463 247.092636,146.874130 248.399734,143.802185 
	C250.709244,138.374344 248.978577,133.434982 244.390320,131.009338 
	C241.557281,124.673546 244.121277,118.735329 245.706802,112.341675 
	C248.237228,107.061340 248.439453,101.272812 252.648743,96.969467 
z"/>
<path fill="#E9E2D1" opacity="1.000000" stroke="none" 
	d="
M199.680115,192.464615 
	C202.803314,192.550995 205.640228,192.984024 208.750183,193.692169 
	C208.268829,204.747147 207.864334,215.556305 206.152496,226.652191 
	C202.955734,227.016312 199.923645,226.997971 196.436768,226.962357 
	C193.856171,224.378220 194.838409,221.502441 195.385529,218.801956 
	C196.640518,212.607452 197.850006,206.445877 197.768860,200.064407 
	C197.737732,197.617004 198.219055,195.086792 199.680115,192.464615 
z"/>
<path fill="#F6F1E5" opacity="1.000000" stroke="none" 
	d="
M177.339935,227.866760 
	C179.580200,218.945129 179.778305,209.934601 178.013184,200.425201 
	C180.814590,198.899338 181.207169,196.240616 181.982498,193.458252 
	C183.318008,191.671310 184.890015,191.742691 186.947525,192.647461 
	C189.770889,201.372482 188.448959,209.941574 188.110687,218.455048 
	C188.008163,221.035202 187.873077,223.757095 186.281525,226.545441 
	C184.923172,226.952744 183.869308,226.986786 182.421112,227.039139 
	C180.587601,227.328842 179.148422,227.600220 177.339935,227.866760 
z"/>
<path fill="#F0EADA" opacity="1.000000" stroke="none" 
	d="
M186.432495,226.948212 
	C187.328537,215.955917 186.946014,204.939255 187.001831,193.467484 
	C187.576157,192.193695 188.415207,191.979996 189.669235,191.982452 
	C190.000626,192.011871 190.491699,192.016678 190.737244,192.014191 
	C190.982773,192.011703 191.294189,192.335037 191.372925,192.542297 
	C191.451645,192.749557 191.488617,193.182373 191.519623,192.964111 
	C191.550629,192.745850 191.711563,192.331970 191.867920,192.174332 
	C194.379211,192.030197 196.734146,192.043701 199.527740,192.087585 
	C199.206467,201.693634 199.053070,211.348892 196.553925,220.704544 
	C196.070801,222.513138 196.053085,224.279236 195.988312,226.514832 
	C192.950623,226.955948 189.919266,226.966843 186.432495,226.948212 
z"/>
<path fill="#CCC0AC" opacity="1.000000" stroke="none" 
	d="
M271.898560,183.888611 
	C271.660828,184.001221 271.409302,183.791016 271.136902,183.265686 
	C271.301117,183.240784 271.557373,183.445862 271.898560,183.888611 
z"/>
<path fill="#C2B4A0" opacity="1.000000" stroke="none" 
	d="
M268.712952,198.957565 
	C269.254028,203.505524 266.588074,206.859451 264.125885,210.664520 
	C262.780914,209.669586 262.780914,209.669586 264.976685,205.336105 
	C266.357819,203.371490 266.990906,201.428986 267.745789,199.207123 
	C268.017303,198.993896 268.481415,198.975464 268.712952,198.957565 
z"/>
<path fill="#CCC0AC" opacity="1.000000" stroke="none" 
	d="
M266.403656,60.003258 
	C266.516052,59.120327 266.979156,58.225994 267.683472,57.152794 
	C269.765594,58.845043 268.969299,59.693504 266.403656,60.003258 
z"/>
<path fill="#BFB19D" opacity="1.000000" stroke="none" 
	d="
M245.718292,111.777237 
	C245.582657,118.052925 243.692322,123.958832 244.003387,130.553345 
	C243.993607,131.747269 243.975555,132.492722 243.952972,133.610992 
	C244.398209,136.469681 244.784943,138.951736 243.253662,141.666183 
	C242.829834,142.026581 242.658524,142.054382 242.237839,142.160324 
	C240.041565,137.996613 240.931595,133.589264 241.411331,129.267990 
	C242.130646,122.788971 243.143463,116.342529 244.046707,109.450623 
	C244.061951,109.019020 244.521698,109.006416 244.750809,108.988983 
	C245.139023,109.838043 245.298126,110.704521 245.718292,111.777237 
z"/>
<path fill="#D7CDBB" opacity="1.000000" stroke="none" 
	d="
M253.921234,95.375458 
	C254.875092,95.222031 256.373840,94.467781 256.415741,96.154442 
	C256.438629,97.074150 255.282471,96.897942 254.187347,96.948586 
	C253.848770,96.514633 253.876343,96.100609 253.921234,95.375458 
z"/>
<path fill="#D7CDBB" opacity="1.000000" stroke="none" 
	d="
M252.970337,93.292885 
	C253.294022,93.463982 253.617020,93.944107 253.941071,94.729744 
	C253.617966,94.557480 253.293793,94.079697 252.970337,93.292885 
z"/>
<path fill="#CCC0AC" opacity="1.000000" stroke="none" 
	d="
M270.650940,191.180450 
	C272.241028,192.041351 272.444092,193.041275 270.371094,193.955048 
	C270.165863,193.137482 270.283356,192.268509 270.650940,191.180450 
z"/>
<path fill="#B5A88B" opacity="1.000000" stroke="none" 
	d="
M177.390594,185.137604 
	C168.885010,162.209137 163.739136,138.688385 160.074097,114.815758 
	C157.644836,98.992630 156.292419,83.083374 157.143936,67.069946 
	C157.604294,58.412678 158.792465,49.851955 162.965607,42.013515 
	C164.478088,39.172573 166.303360,36.648659 169.509079,34.959412 
	C170.114685,34.775455 170.391235,34.674221 171.000519,34.862000 
	C172.070114,37.077770 171.146133,38.739822 170.422089,40.393082 
	C164.202271,54.595436 162.071701,69.312874 164.402878,84.705849 
	C167.387268,104.411942 170.136719,124.153564 173.374969,144.256592 
	C175.178925,156.469376 177.162811,168.217621 179.104477,179.972717 
	C179.322144,181.290512 179.306229,182.612701 178.686630,184.295212 
	C178.262909,184.875809 178.038818,185.064880 177.390594,185.137604 
z"/>
<path fill="#AA987D" opacity="1.000000" stroke="none" 
	d="
M139.794312,170.711029 
	C135.407654,162.440872 134.234329,153.360291 133.102585,144.374695 
	C130.828186,126.316925 129.123276,108.188095 127.037209,90.105446 
	C126.564629,86.008965 125.495338,81.981323 124.628082,77.509117 
	C124.929855,76.645287 125.405632,76.369003 126.405434,76.275772 
	C128.797379,76.784790 129.092407,78.569748 129.903381,80.460945 
	C133.922714,90.976883 136.970703,101.291222 136.837753,112.682709 
	C138.225052,131.770630 137.773605,150.602295 141.005463,169.580048 
	C140.764343,170.202911 140.513763,170.403122 139.794312,170.711029 
z"/>
<path fill="#F3EADA" opacity="1.000000" stroke="none" 
	d="
M137.114288,112.810585 
	C134.609039,102.542068 133.055450,91.852501 129.059067,81.372833 
	C130.625229,74.959564 127.512123,69.110123 128.310135,63.046955 
	C128.664368,60.355507 128.000244,57.529747 129.660080,54.952660 
	C134.533279,55.526520 137.619934,59.203281 136.741730,63.256489 
	C134.734924,72.518417 136.697952,81.661545 137.486603,90.824059 
	C138.111252,98.081291 138.379807,105.301399 137.114288,112.810585 
z"/>
<path fill="#EEE3D3" opacity="1.000000" stroke="none" 
	d="
M109.831345,108.916977 
	C107.709763,102.721115 107.427635,96.037483 105.145027,89.787788 
	C103.949928,86.515640 102.926514,83.185181 100.092209,80.426834 
	C102.778236,75.847427 101.856308,70.975204 101.957687,66.277718 
	C101.991241,64.722763 101.105415,62.988056 103.673767,62.139366 
	C108.467751,63.042900 108.552498,66.786545 107.802605,69.861206 
	C106.615204,74.729683 107.663925,79.447769 108.389648,83.974419 
	C109.337029,89.883598 109.530647,95.938240 111.143097,101.724648 
	C111.863388,104.309425 111.339676,106.521950 109.831345,108.916977 
z"/>
<path fill="#A99C83" opacity="1.000000" stroke="none" 
	d="
M107.177147,129.398438 
	C110.555504,131.559662 109.841949,135.675613 110.851303,139.085968 
	C111.458168,141.136414 111.593422,142.959396 114.626228,142.992950 
	C117.310356,154.615158 119.593452,166.232925 121.891220,177.847809 
	C122.306786,179.948425 122.782539,182.037155 123.298782,184.544235 
	C123.095604,185.115265 122.824150,185.273407 122.092308,185.330902 
	C118.075462,176.449081 115.282608,167.441528 113.558929,157.696716 
	C113.912529,153.442886 115.303574,149.401947 111.094086,146.248016 
	C109.587799,140.660034 108.373138,135.229889 107.177147,129.398438 
z"/>
<path fill="#EEE3D3" opacity="1.000000" stroke="none" 
	d="
M130.043640,54.761189 
	C129.900009,61.649269 128.962387,68.309036 130.840103,74.958969 
	C131.328461,76.688507 132.043045,79.245789 129.383331,80.917587 
	C127.754311,80.149918 128.124313,78.578133 127.204033,77.243813 
	C124.319427,74.360428 123.106377,70.972588 122.090912,67.091232 
	C123.409775,62.524483 121.936630,58.478230 121.719009,54.021488 
	C123.820023,52.061607 125.998543,52.042812 128.642334,52.768745 
	C129.014053,52.967949 128.999725,52.993332 129.012268,52.987381 
	C129.243164,53.236637 129.464569,53.489182 129.864136,53.920097 
	C130.039688,54.100750 130.046005,54.541035 130.043640,54.761189 
z"/>
<path fill="#A99C83" opacity="1.000000" stroke="none" 
	d="
M117.802902,61.544327 
	C113.054352,56.008297 113.783928,52.840786 120.267426,50.601536 
	C122.199608,51.276291 125.023613,51.591202 121.415947,54.135788 
	C119.360664,55.988216 119.180420,58.227539 118.720230,60.738327 
	C118.443359,61.259880 118.297012,61.451286 117.802902,61.544327 
z"/>
<path fill="#BAAD96" opacity="1.000000" stroke="none" 
	d="
M121.706978,185.599548 
	C121.920250,185.182220 122.208580,185.134201 122.931984,185.021652 
	C125.279755,190.056580 127.192451,195.156036 129.061829,200.641373 
	C125.303757,196.633759 123.631615,191.258667 121.706978,185.599548 
z"/>
<path fill="#BAAD96" opacity="1.000000" stroke="none" 
	d="
M139.359192,171.174530 
	C139.591507,170.650604 139.857574,170.482513 140.569275,170.158569 
	C142.453506,174.682541 143.892105,179.362381 145.443832,184.420166 
	C145.510773,184.999771 145.464600,185.201416 145.108429,185.389069 
	C141.801987,181.226608 140.322037,176.486038 139.359192,171.174530 
z"/>
<path fill="#A99C83" opacity="1.000000" stroke="none" 
	d="
M122.741707,66.824631 
	C124.218979,70.201927 125.571541,73.244904 126.951530,76.646782 
	C126.442001,77.018227 125.905052,77.030777 124.961761,77.069786 
	C123.010010,73.365532 121.464592,69.634811 120.104179,65.277878 
	C121.817856,64.311562 122.535957,64.997658 122.741707,66.824631 
z"/>
<path fill="#DCD3C1" opacity="1.000000" stroke="none" 
	d="
M179.229156,192.872101 
	C175.911469,195.143738 172.195236,194.961304 168.386917,195.979446 
	C170.515503,192.381531 174.908417,193.689148 178.592316,192.028107 
	C179.124908,192.163681 179.273895,192.360275 179.229156,192.872101 
z"/>
<path fill="#E0D7C6" opacity="1.000000" stroke="none" 
	d="
M120.853958,53.986572 
	C122.228020,52.981873 122.231590,52.073460 120.723930,50.791103 
	C123.631577,49.524319 126.073029,51.167278 128.813080,52.670731 
	C126.931648,53.305458 124.849236,53.642971 122.369621,53.987255 
	C121.703232,54.089890 121.434052,54.185745 120.853958,53.986572 
z"/>
<path fill="#C4B7A4" opacity="1.000000" stroke="none" 
	d="
M171.877594,35.393303 
	C171.231049,35.125496 170.952667,35.076408 170.256226,34.952003 
	C173.461639,31.522789 177.882004,33.522499 182.373520,33.087189 
	C182.808838,33.098724 182.859238,33.468178 182.874130,33.654018 
	C179.647659,36.270695 175.867996,35.468601 171.877594,35.393303 
z"/>
<path fill="#DCD3C1" opacity="1.000000" stroke="none" 
	d="
M190.003235,191.771957 
	C189.456955,192.892715 188.579407,192.970413 187.337555,192.989075 
	C185.607880,193.010056 184.213943,193.021362 182.402054,193.060959 
	C181.552689,193.080170 181.121262,193.071091 180.365936,193.062210 
	C179.905289,192.804062 179.768570,192.545731 179.889069,191.931732 
	C183.115479,190.278412 186.119781,189.267044 189.703583,190.747070 
	C190.014877,191.052292 190.005859,191.532043 190.003235,191.771957 
z"/>
<path fill="#C7C3B6" opacity="1.000000" stroke="none" 
	d="
M180.281387,191.612762 
	C180.040726,192.128342 180.037247,192.314896 180.037888,192.781921 
	C179.874146,193.082367 179.706253,193.102325 179.286896,193.154816 
	C179.025558,192.984039 179.015671,192.780762 178.990875,192.272293 
	C178.306534,189.898621 177.637131,187.830124 176.967102,185.391449 
	C177.211258,185.029449 177.456055,185.037659 178.068268,185.045822 
	C181.069824,186.477356 181.283661,188.717087 180.281387,191.612762 
z"/>
<path fill="#C7C3B6" opacity="1.000000" stroke="none" 
	d="
M145.341690,184.908646 
	C147.244263,185.887070 147.436707,187.601257 147.645844,189.749176 
	C145.607635,189.035889 145.279709,187.505737 144.842865,185.700195 
	C144.798462,185.375076 145.126419,185.019180 145.341690,184.908646 
z"/>
<path fill="#DBD1BF" opacity="1.000000" stroke="none" 
	d="
M168.005402,196.007767 
	C166.472336,197.178238 164.790497,197.876633 162.257812,197.802002 
	C163.748215,195.595322 165.570816,196.048416 167.567825,195.936996 
	C167.952362,195.943222 167.987381,195.986542 168.005402,196.007767 
z"/>
<path fill="#A99C83" opacity="1.000000" stroke="none" 
	d="
M119.906891,65.084381 
	C119.095200,64.129234 118.383965,63.080490 117.563934,61.738857 
	C117.455132,61.445969 117.761169,61.189667 117.917946,61.066139 
	C120.317696,60.875462 120.779243,62.241119 120.413559,64.454742 
	C120.207664,64.802963 120.007347,64.990784 119.906891,65.084381 
z"/>
<path fill="#C7C3B6" opacity="1.000000" stroke="none" 
	d="
M131.010193,203.682526 
	C129.480957,204.006302 129.050537,203.010696 128.984344,201.358917 
	C130.271271,201.281494 130.737396,202.232254 131.010193,203.682526 
z"/>
<path fill="#DBD1BF" opacity="1.000000" stroke="none" 
	d="
M152.106354,202.358093 
	C152.913879,202.760818 152.804260,203.166901 152.316025,203.523041 
	C152.206070,203.603256 151.946732,203.613068 151.837692,203.537567 
	C151.288422,203.157166 151.354950,202.750244 152.106354,202.358093 
z"/>
<path fill="#DBD1BF" opacity="1.000000" stroke="none" 
	d="
M154.502869,201.467255 
	C154.270966,200.717255 154.503723,200.329498 155.079681,200.376312 
	C155.289062,200.393341 155.471420,200.742737 155.666107,200.940491 
	C155.342361,201.180756 155.018616,201.421021 154.502869,201.467255 
z"/>
<path fill="#D7CDBB" opacity="1.000000" stroke="none" 
	d="
M147.681046,206.015228 
	C147.519302,206.588623 147.024475,207.186142 146.256744,207.904053 
	C145.987778,207.052994 146.274414,206.275803 147.681046,206.015228 
z"/>
<path fill="#EEE3D3" opacity="1.000000" stroke="none" 
	d="
M111.117920,111.297302 
	C111.834900,110.451271 111.856827,111.135101 111.879242,111.500389 
	C111.894096,111.742569 111.643272,112.001068 111.511383,112.252266 
	C111.368614,112.008583 111.225838,111.764900 111.117920,111.297302 
z"/>
<path fill="#DBD1BF" opacity="1.000000" stroke="none" 
	d="
M157.696426,199.351990 
	C158.002121,199.366623 158.168167,199.522141 158.334213,199.677643 
	C158.075073,199.616058 157.815918,199.554459 157.696426,199.351990 
z"/>
<path fill="#D7CDBB" opacity="1.000000" stroke="none" 
	d="
M145.685730,207.987595 
	C145.459686,208.341492 144.892792,208.697327 143.962891,209.034256 
	C144.181549,208.673401 144.763199,208.331467 145.685730,207.987595 
z"/>
<path fill="#C7C3B6" opacity="1.000000" stroke="none" 
	d="
M133.886948,207.759491 
	C132.880814,208.929840 133.084808,207.841721 132.955597,206.979706 
	C133.225021,206.968292 133.482681,207.244019 133.886948,207.759491 
z"/>
<path fill="#C7C3B6" opacity="1.000000" stroke="none" 
	d="
M132.266479,205.741943 
	C131.600510,205.934814 131.151489,205.462982 130.993134,204.332657 
	C131.369598,204.469254 131.748962,204.958313 132.266479,205.741943 
z"/>
<path fill="#D7CDBB" opacity="1.000000" stroke="none" 
	d="
M148.998260,205.817627 
	C148.911591,206.029205 148.726715,206.036896 148.264771,206.027740 
	C148.135056,205.518356 148.339630,205.157318 148.998260,205.817627 
z"/>
<path fill="#C7C3B6" opacity="1.000000" stroke="none" 
	d="
M149.593445,193.384506 
	C149.663208,193.487701 149.404816,193.546829 149.404816,193.546829 
	C149.404816,193.546829 149.523682,193.281311 149.593445,193.384506 
z"/>
<path fill="#DBD1BF" opacity="1.000000" stroke="none" 
	d="
M160.560669,198.572876 
	C160.475693,198.626709 160.439606,198.412125 160.439606,198.412125 
	C160.439606,198.412125 160.645645,198.519028 160.560669,198.572876 
z"/>
<path fill="#C7C3B6" opacity="1.000000" stroke="none" 
	d="
M148.576645,191.610382 
	C148.469910,191.704956 148.421814,191.370834 148.421814,191.370834 
	C148.421814,191.370834 148.683380,191.515823 148.576645,191.610382 
z"/>
<path fill="#E0D7C6" opacity="1.000000" stroke="none" 
	d="
M129.960648,53.842979 
	C129.768829,53.887436 129.497986,53.674118 129.125961,53.221115 
	C129.310394,53.182686 129.596008,53.383945 129.960648,53.842979 
z"/>
<path fill="#D7CDBB" opacity="1.000000" stroke="none" 
	d="
M142.772949,209.796860 
	C142.827118,210.001511 142.637970,210.419128 142.106598,210.937866 
	C142.019455,210.695938 142.274536,210.352875 142.772949,209.796860 
z"/>
<path fill="#CBBCA1" opacity="1.000000" stroke="none" 
	d="
M218.934662,45.578056 
	C215.846771,51.667904 216.348587,58.306103 214.108215,64.620850 
	C210.928070,87.314713 208.999115,109.710220 207.724075,132.213730 
	C207.016693,144.698196 207.414200,157.134842 207.020325,169.585403 
	C206.926315,172.556946 208.835907,175.381958 207.299774,178.678711 
	C205.694687,168.797318 204.022903,158.678436 203.128098,148.491333 
	C201.984177,135.468094 200.559891,122.446350 201.008087,109.315575 
	C201.449005,96.397858 203.139465,83.633400 205.184952,70.463242 
	C208.137451,65.138496 208.934006,59.461227 211.085999,54.290234 
	C212.287720,51.402630 213.636337,48.576160 214.969910,45.362335 
	C217.976410,43.141811 216.597855,38.441132 220.619644,37.023895 
	C220.317047,39.740780 219.638367,42.466568 218.934662,45.578056 
z"/>
<path fill="#EEE3D3" opacity="1.000000" stroke="none" 
	d="
M171.310242,35.486450 
	C174.910339,33.896446 178.466446,33.899574 182.455688,33.870472 
	C187.219391,40.934490 186.102524,48.804092 185.825317,56.451122 
	C185.539413,64.338051 184.618820,72.201973 183.973206,80.524261 
	C183.943680,82.159180 184.140366,83.378143 183.225067,84.739075 
	C182.980682,85.748848 182.975143,86.490219 182.965393,87.602264 
	C181.636017,105.662125 178.271194,123.070007 175.656769,140.580429 
	C175.382416,142.417984 175.513702,144.725372 172.549545,145.206909 
	C169.410400,127.172798 166.876526,109.275246 163.863907,91.458649 
	C161.762939,79.033630 161.289810,66.704185 164.065353,54.383373 
	C165.529663,47.883160 167.940491,41.681866 171.310242,35.486450 
z"/>
<path fill="#FAF6EA" opacity="1.000000" stroke="none" 
	d="
M172.153931,145.439728 
	C175.790024,141.119186 175.301788,135.875641 175.781464,131.285385 
	C176.900406,120.577431 179.065781,110.046295 180.563766,99.412956 
	C181.077591,95.765610 179.461197,91.665146 182.625946,88.176506 
	C188.268600,90.562416 185.793427,95.871132 186.821609,99.839935 
	C188.829407,107.590179 187.934769,115.522881 186.135666,123.310745 
	C185.954575,124.094589 185.924896,125.012192 186.145126,125.775345 
	C190.302551,140.181473 187.617783,154.734665 187.118149,169.238083 
	C187.066879,170.726639 186.408493,172.833618 187.522827,173.532684 
	C192.132935,176.424728 191.067642,179.695404 189.163528,183.643219 
	C188.084885,185.879608 190.265411,187.994965 190.945816,190.552963 
	C190.986160,190.920776 190.501266,190.992615 190.258072,191.022461 
	C186.874176,190.409012 183.987488,192.283890 180.462311,191.957764 
	C179.638718,189.824509 179.233231,187.707214 178.631699,185.317841 
	C176.343506,171.978409 174.251343,158.911026 172.153931,145.439728 
z"/>
<path fill="#FAF6EA" opacity="1.000000" stroke="none" 
	d="
M183.330109,84.949585 
	C183.136642,83.822830 183.287064,82.638199 183.703979,81.213066 
	C185.314346,82.388092 185.647003,83.727112 183.330109,84.949585 
z"/>
<path fill="#C8BCA9" opacity="1.000000" stroke="none" 
	d="
M241.628113,146.003403 
	C241.697571,156.453217 240.849854,166.945709 239.301056,177.684128 
	C239.013809,171.286560 239.012085,164.611115 239.008408,157.466919 
	C239.055344,153.217789 238.999191,149.415833 241.628113,146.003403 
z"/>
<path fill="#A9987A" opacity="1.000000" stroke="none" 
	d="
M110.824585,146.414719 
	C112.124168,145.550400 113.301865,144.521484 114.186111,146.933563 
	C115.425797,150.315262 115.772324,153.526489 113.869331,157.059647 
	C113.309464,156.741470 113.091881,156.197021 112.862915,155.355621 
	C112.941261,154.498169 112.895454,153.958923 112.449936,153.226013 
	C112.185486,152.560532 112.071587,152.127792 111.950104,151.358276 
	C111.983231,150.159332 112.040939,149.294586 111.366898,148.254013 
	C111.062744,147.577911 110.954720,147.158585 110.824585,146.414719 
z"/>
<path fill="#E0D7C6" opacity="1.000000" stroke="none" 
	d="
M134.687500,219.921997 
	C134.588501,221.763596 135.993484,224.210510 133.368942,226.028549 
	C133.154343,224.070007 132.409988,221.801331 134.687500,219.921997 
z"/>
<path fill="#FBF7EB" opacity="1.000000" stroke="none" 
	d="
M131.989868,212.603851 
	C130.708740,211.264923 131.136887,210.419617 132.570831,210.133179 
	C133.282806,209.990967 134.419022,209.900040 134.399033,211.036499 
	C134.378845,212.184830 133.164597,212.307617 131.989868,212.603851 
z"/>
<path fill="#A99C83" opacity="1.000000" stroke="none" 
	d="
M111.140175,148.322357 
	C112.826141,148.283951 113.365685,149.113205 112.200546,150.833679 
	C111.664871,150.230164 111.387230,149.438812 111.140175,148.322357 
z"/>
<path fill="#A99C83" opacity="1.000000" stroke="none" 
	d="
M112.256233,153.272430 
	C113.253036,153.230484 114.182503,153.481781 113.091919,154.913605 
	C112.638718,154.556305 112.425903,154.053955 112.256233,153.272430 
z"/>
<path fill="#DBD1BF" opacity="1.000000" stroke="none" 
	d="
M137.746155,215.144531 
	C137.850815,215.564240 137.691010,216.138031 137.263062,216.863373 
	C137.157181,216.442825 137.319427,215.870712 137.746155,215.144531 
z"/>
<path fill="#DBD1BF" opacity="1.000000" stroke="none" 
	d="
M136.746857,217.085907 
	C136.778305,217.291565 136.542740,217.591934 136.015106,217.960556 
	C135.975296,217.746063 136.227570,217.463348 136.746857,217.085907 
z"/>
<path fill="#DBD1BF" opacity="1.000000" stroke="none" 
	d="
M139.934937,212.173767 
	C140.424606,212.156494 140.844574,212.436142 139.961105,212.987885 
	C139.764389,212.840179 139.826065,212.652924 139.934937,212.173767 
z"/>
<path fill="#DBD1BF" opacity="1.000000" stroke="none" 
	d="
M138.806519,213.888702 
	C138.866562,214.067078 138.706421,214.425537 138.269226,214.898193 
	C138.190216,214.697861 138.388275,214.383331 138.806519,213.888702 
z"/>
<path fill="#F0ECDD" opacity="1.000000" stroke="none" 
	d="
M207.891479,190.813812 
	C207.721405,190.856857 207.445343,190.670486 207.068954,190.251846 
	C207.240906,190.207855 207.513199,190.396118 207.891479,190.813812 
z"/>
<path fill="#DCD3C1" opacity="1.000000" stroke="none" 
	d="
M191.763916,192.010040 
	C192.024261,192.016678 192.001328,192.492859 192.000031,192.731232 
	C191.831741,193.076553 191.664749,193.183502 191.250000,193.125854 
	C191.002228,192.961273 190.999695,192.486221 190.991241,192.248962 
	C191.156372,192.008926 191.329956,192.006165 191.763916,192.010040 
z"/>
<path fill="#D7CDBA" opacity="1.000000" stroke="none" 
	d="
M243.397507,141.985687 
	C243.135834,139.520203 243.270538,137.041611 243.676834,134.273438 
	C246.667953,136.700348 247.842819,139.386993 243.397507,141.985687 
z"/>
<path fill="#F6F1E5" opacity="1.000000" stroke="none" 
	d="
M191.086578,193.135971 
	C191.002228,192.961273 191.500427,192.969727 191.749573,192.969666 
	C191.819504,193.317978 191.658722,193.711105 191.086578,193.135971 
z"/>
<path fill="#E2DAC9" opacity="1.000000" stroke="none" 
	d="
M120.496582,64.880898 
	C120.159416,63.420681 119.675667,62.231140 118.362007,61.112175 
	C117.975578,58.429523 117.079529,55.710808 120.211578,53.818741 
	C120.778458,53.755852 121.013870,53.820168 121.610840,53.939255 
	C123.894890,57.974586 124.977737,62.040974 123.053314,66.777313 
	C122.172775,66.425575 121.479134,65.692207 120.496582,64.880898 
z"/>
</svg>