<?xml version="1.0" encoding="utf-8"?><svg xmlns="http://www.w3.org/2000/svg" xmlns:xlink="http://www.w3.org/1999/xlink" width="1701" height="151" preserveAspectRatio="xMidYMid" viewBox="0 0 1701 151" style="z-index:1;margin-right:-1.6px;display:block;background-color:rgb(241, 242, 243);animation-play-state:paused" ><g transform="translate(850.5,75.5) scale(1,1) translate(-850.5,-75.5)" style="transform:matrix(1, 0, 0, 1, 0, 0);animation-play-state:paused" ><linearGradient id="lg-0.18619395990477816" x1="0" x2="1" y1="0" y2="0" style="animation-play-state:paused" ><stop stop-color="#2b5e9f" offset="0" style="animation-play-state:paused" ></stop>

  
<stop stop-color="#1b222f" offset="1" style="animation-play-state:paused" ></stop></linearGradient>
<path d="M 0 0 L 0 163.08 Q 170.1 174.914 340.2 142.149 T 680.4 121.218 T 1020.6 100.287 T 1360.8 79.3557 T 1701 58.4246 L 1701 0 Z" fill="url(#lg-0.18619395990477816)" opacity="0.4" style="opacity:0.4;animation-play-state:paused" ></path>
<path d="M 0 0 L 0 163.08 Q 170.1 163.759 340.2 144.236 T 680.4 125.392 T 1020.6 106.548 T 1360.8 87.7036 T 1701 68.8595 L 1701 0 Z" fill="url(#lg-0.18619395990477816)" opacity="0.4" style="opacity:0.4;animation-play-state:paused" ></path>
<path d="M 0 0 L 0 163.08 Q 170.1 173.627 340.2 142.297 T 680.4 121.513 T 1020.6 100.73 T 1360.8 79.9467 T 1701 59.1634 L 1701 0 Z" fill="url(#lg-0.18619395990477816)" opacity="0.4" style="opacity:0.4;animation-play-state:paused" ></path>
<path d="M 0 0 L 0 163.08 Q 170.1 164.554 340.2 142.969 T 680.4 122.858 T 1020.6 102.747 T 1360.8 82.6358 T 1701 62.5248 L 1701 0 Z" fill="url(#lg-0.18619395990477816)" opacity="0.4" style="opacity:0.4;animation-play-state:paused" ></path>
<path d="M 0 0 L 0 163.08 Q 170.1 182.468 340.2 145.151 T 680.4 127.223 T 1020.6 109.294 T 1360.8 91.3654 T 1701 73.4368 L 1701 0 Z" fill="url(#lg-0.18619395990477816)" opacity="0.4" style="opacity:0.4;animation-play-state:paused" ></path></g></svg>